<svg width="865" height="555" viewBox="0 0 865 555" fill="none" xmlns="http://www.w3.org/2000/svg">
<g clip-path="url(#clip0_1002_173)">
<path d="M854.297 233.482C834.201 142.228 764.277 70.223 669.025 46.1024C643.934 39.8049 617.296 36.5968 590.897 39.3297C482.564 50.4988 353.301 123.336 286.351 138.545C219.282 153.873 140.678 92.7989 51.4909 186.548C-37.6966 280.298 -17.124 497.383 161.251 539.921C339.507 582.458 438.803 477.778 518.001 500.71C597.2 523.642 738.948 513.78 822.666 446.171C872.135 406.01 871.778 312.617 854.297 233.482Z" fill="#77AE90"/>
<path opacity="0.8" d="M854.297 233.482C834.201 142.228 764.277 70.223 669.025 46.1024C643.934 39.8049 617.296 36.5968 590.897 39.3297C482.564 50.4988 353.301 123.336 286.351 138.545C219.282 153.873 140.678 92.7989 51.4909 186.548C-37.6966 280.298 -17.124 497.383 161.251 539.921C339.507 582.458 438.803 477.778 518.001 500.71C597.2 523.642 738.948 513.78 822.666 446.171C872.135 406.01 871.778 312.617 854.297 233.482Z" fill="white"/>
<path opacity="0.2" d="M473.05 254.633H436.305V269.485H473.05V254.633Z" fill="#181818"/>
<path opacity="0.2" d="M459.018 201.757H422.273V216.61H459.018V201.757Z" fill="#181818"/>
<path opacity="0.2" d="M326.188 254.157H289.443V269.01H326.188V254.157Z" fill="#181818"/>
<path opacity="0.2" d="M379.463 150.902H342.718V165.755H379.463V150.902Z" fill="#181818"/>
<path opacity="0.2" d="M419.657 150.902H382.912V165.755H419.657V150.902Z" fill="#181818"/>
<path opacity="0.2" d="M263.163 363.947H226.417V378.8H263.163V363.947Z" fill="#181818"/>
<path opacity="0.2" d="M244.017 382.365H207.272V397.217H244.017V382.365Z" fill="#181818"/>
<path opacity="0.1" d="M438.922 222.313H402.176V237.166H438.922V222.313Z" fill="#181818"/>
<path opacity="0.1" d="M493.98 305.725H457.235V320.578H493.98V305.725Z" fill="#181818"/>
<path opacity="0.1" d="M278.978 328.42H242.233V343.273H278.978V328.42Z" fill="#181818"/>
<path opacity="0.1" d="M320.837 328.42H284.092V343.273H320.837V328.42Z" fill="#181818"/>
<path opacity="0.1" d="M324.405 307.508H287.659V322.36H324.405V307.508Z" fill="#181818"/>
<path opacity="0.1" d="M480.899 222.313H444.154V237.166H480.899V222.313Z" fill="#181818"/>
<path opacity="0.2" d="M462.348 104.087H425.603V118.939H462.348V104.087Z" fill="#181818"/>
<path opacity="0.2" d="M448.435 51.2117H411.689V66.0642H448.435V51.2117Z" fill="#181818"/>
<path opacity="0.1" d="M428.338 71.7676H391.593V86.6201H428.338V71.7676Z" fill="#181818"/>
<path opacity="0.1" d="M470.316 71.7676H433.57V86.6201H470.316V71.7676Z" fill="#181818"/>
<path opacity="0.2" d="M371.615 380.82H334.869V395.672H371.615V380.82Z" fill="#181818"/>
<path opacity="0.1" d="M351.518 401.376H314.772V416.229H351.518V401.376Z" fill="#181818"/>
<path opacity="0.1" d="M393.495 401.376H356.75V416.229H393.495V401.376Z" fill="#181818"/>
<path opacity="0.2" d="M193.596 196.054H156.851V210.907H193.596V196.054Z" fill="#181818"/>
<path opacity="0.1" d="M173.499 216.491H136.754V231.344H173.499V216.491Z" fill="#181818"/>
<path opacity="0.1" d="M215.477 216.491H178.732V231.344H215.477V216.491Z" fill="#181818"/>
<path opacity="0.2" d="M179.326 306.557H142.581V321.41H179.326V306.557Z" fill="#181818"/>
<path opacity="0.1" d="M341.885 235.621H305.14V250.474H341.885V235.621Z" fill="#181818"/>
<path opacity="0.1" d="M286.827 381.414H250.082V396.267H286.827V381.414Z" fill="#181818"/>
<path opacity="0.1" d="M400.392 132.485H363.647V147.337H400.392V132.485Z" fill="#181818"/>
<path opacity="0.2" d="M158.278 257.365H121.533V272.218H158.278V257.365Z" fill="#181818"/>
<path opacity="0.1" d="M179.326 239.067H142.581V253.919H179.326V239.067Z" fill="#181818"/>
<path opacity="0.1" d="M272.795 149.833H236.05V164.685H272.795V149.833Z" fill="#181818"/>
<path opacity="0.2" d="M400.392 254.633H363.647V269.485H400.392V254.633Z" fill="#181818"/>
<path opacity="0.2" d="M561.6 269.428H598.346V254.575H561.6V269.428Z" fill="#181818"/>
<path opacity="0.2" d="M575.542 216.612H612.288V201.759H575.542V216.612Z" fill="#181818"/>
<path opacity="0.2" d="M708.465 269.03H745.21V254.177H708.465V269.03Z" fill="#181818"/>
<path opacity="0.2" d="M655.089 165.638H691.834V150.786H655.089V165.638Z" fill="#181818"/>
<path opacity="0.2" d="M614.857 165.638H651.603V150.786H614.857V165.638Z" fill="#181818"/>
<path opacity="0.1" d="M595.658 237.11H632.403V222.257H595.658V237.11Z" fill="#181818"/>
<path opacity="0.1" d="M540.569 320.532H577.314V305.679H540.569V320.532Z" fill="#181818"/>
<path opacity="0.1" d="M755.666 343.258H792.412V328.405H755.666V343.258Z" fill="#181818"/>
<path opacity="0.1" d="M713.603 343.258H750.349V328.405H713.603V343.258Z" fill="#181818"/>
<path opacity="0.1" d="M710.177 322.244H746.923V307.391H710.177V322.244Z" fill="#181818"/>
<path opacity="0.1" d="M553.714 237.11H590.459V222.257H553.714V237.11Z" fill="#181818"/>
<path opacity="0.2" d="M267.387 454.783H304.132V439.931H267.387V454.783Z" fill="#181818"/>
<path opacity="0.1" d="M287.502 475.281H324.248V460.428H287.502V475.281Z" fill="#181818"/>
<path opacity="0.1" d="M245.439 475.281H282.185V460.428H245.439V475.281Z" fill="#181818"/>
<path opacity="0.2" d="M89.5985 454.783H126.344V439.931H89.5985V454.783Z" fill="#181818"/>
<path opacity="0.1" d="M109.714 475.281H146.459V460.428H109.714V475.281Z" fill="#181818"/>
<path opacity="0.1" d="M67.7699 475.281H104.515V460.428H67.7699V475.281Z" fill="#181818"/>
<path opacity="0.2" d="M662.975 395.676H699.721V380.823H662.975V395.676Z" fill="#181818"/>
<path opacity="0.1" d="M683.091 416.173H719.836V401.321H683.091V416.173Z" fill="#181818"/>
<path opacity="0.1" d="M641.147 416.173H677.892V401.321H641.147V416.173Z" fill="#181818"/>
<path opacity="0.1" d="M692.691 250.374H729.436V235.521H692.691V250.374Z" fill="#181818"/>
<path opacity="0.1" d="M747.78 396.323H784.525V381.47H747.78V396.323Z" fill="#181818"/>
<path opacity="0.1" d="M568.662 417.165H605.407V402.312H568.662V417.165Z" fill="#181818"/>
<path opacity="0.1" d="M526.717 417.165H563.463V402.312H526.717V417.165Z" fill="#181818"/>
<path opacity="0.2" d="M475.971 469.583H512.716V454.73H475.971V469.583Z" fill="#181818"/>
<path opacity="0.1" d="M789.607 490.08H826.352V475.228H789.607V490.08Z" fill="#181818"/>
<path opacity="0.1" d="M789.607 452.143H826.352V437.29H789.607V452.143Z" fill="#181818"/>
<path opacity="0.1" d="M808.449 470.56H845.194V455.708H808.449V470.56Z" fill="#181818"/>
<path opacity="0.1" d="M766.306 470.56H803.051V455.708H766.306V470.56Z" fill="#181818"/>
<path opacity="0.1" d="M560.775 470.23H597.52V455.377H560.775V470.23Z" fill="#181818"/>
<path opacity="0.2" d="M645.718 504.631H608.972V519.484H645.718V504.631Z" fill="#181818"/>
<path opacity="0.1" d="M625.502 525.068H588.757V539.921H625.502V525.068Z" fill="#181818"/>
<path opacity="0.1" d="M667.479 525.068H630.734V539.921H667.479V525.068Z" fill="#181818"/>
<path opacity="0.2" d="M767.964 491.442H731.219V506.294H767.964V491.442Z" fill="#181818"/>
<path opacity="0.1" d="M747.748 525.068H711.003V539.921H747.748V525.068Z" fill="#181818"/>
<path opacity="0.1" d="M789.726 525.068H752.98V539.921H789.726V525.068Z" fill="#181818"/>
<path opacity="0.1" d="M109.76 539.921H73.0149V554.773H109.76V539.921Z" fill="#181818"/>
<path opacity="0.1" d="M230.223 520.434H193.478V535.287H230.223V520.434Z" fill="#181818"/>
<path opacity="0.1" d="M162.44 502.017H125.695V516.869H162.44V502.017Z" fill="#181818"/>
<path opacity="0.1" d="M143.532 520.434H106.787V535.287H143.532V520.434Z" fill="#181818"/>
<path opacity="0.1" d="M185.748 520.434H149.003V535.287H185.748V520.434Z" fill="#181818"/>
<path opacity="0.1" d="M634.057 147.369H670.802V132.517H634.057V147.369Z" fill="#181818"/>
<path opacity="0.1" d="M614.64 84.7571H651.386V69.9045H614.64V84.7571Z" fill="#181818"/>
<path opacity="0.1" d="M761.722 164.593H798.467V149.74H761.722V164.593Z" fill="#181818"/>
<path opacity="0.2" d="M634.057 269.428H670.802V254.575H634.057V269.428Z" fill="#181818"/>
<path opacity="0.2" d="M260.665 48.9541H223.92V63.8067H260.665V48.9541Z" fill="#181818"/>
<path opacity="0.1" d="M112.257 154.229H75.5122V169.082H112.257V154.229Z" fill="#181818"/>
<path opacity="0.1" d="M158.04 166.943H121.295V181.795H158.04V166.943Z" fill="#181818"/>
<path opacity="0.1" d="M68.3771 181.677H31.6318V196.529H68.3771V181.677Z" fill="#181818"/>
<path opacity="0.1" d="M134.733 182.271H97.9873V197.123H134.733V182.271Z" fill="#181818"/>
<path opacity="0.2" d="M238.19 69.7478H201.445V84.6004H238.19V69.7478Z" fill="#181818"/>
<path opacity="0.2" d="M631.566 48.9541H594.821V63.8067H631.566V48.9541Z" fill="#181818"/>
<path opacity="0.2" d="M609.091 69.7478H572.346V84.6004H609.091V69.7478Z" fill="#181818"/>
<path d="M99.0576 244.889H4.3999V229.442H91.328V5.94092H106.787V237.285C106.787 241.443 103.339 244.889 99.0576 244.889Z" fill="white" stroke="#181818" stroke-miterlimit="10" stroke-linecap="round" stroke-linejoin="round"/>
<path d="M816.125 0.593994V88.9965H106.43V104.443H791.272V477.777H608.616C604.335 477.777 600.886 481.223 600.886 485.501V542.416H616.345V493.224H791.272V545.505H806.731V104.443H823.855C828.136 104.443 831.584 100.997 831.584 96.7198V0.593994H816.125Z" fill="white" stroke="#181818" stroke-miterlimit="10" stroke-linecap="round" stroke-linejoin="round"/>
<path d="M831.465 48.241H816.363V55.2514H831.465V48.241Z" fill="white" stroke="#181818" stroke-miterlimit="10" stroke-linecap="round" stroke-linejoin="round"/>
<path d="M670.968 493.151V478.061H663.951V493.151H670.968Z" fill="white" stroke="#181818" stroke-miterlimit="10" stroke-linecap="round" stroke-linejoin="round"/>
<path d="M686.246 493.094V478.004H679.23V493.094H686.246Z" fill="white" stroke="#181818" stroke-miterlimit="10" stroke-linecap="round" stroke-linejoin="round"/>
<path d="M275.411 505.938H26.1616V521.384H275.411V505.938Z" fill="white" stroke="#181818" stroke-miterlimit="10" stroke-linecap="round" stroke-linejoin="round"/>
<path d="M275.411 484.669H26.1616V500.116H275.411V484.669Z" fill="white" stroke="#181818" stroke-miterlimit="10" stroke-linecap="round" stroke-linejoin="round"/>
<path d="M143.295 485.025H132.592V499.997H143.295V485.025Z" fill="white" stroke="#181818" stroke-miterlimit="10" stroke-linecap="round" stroke-linejoin="round"/>
<path d="M165.532 485.025H154.83V499.997H165.532V485.025Z" fill="white" stroke="#181818" stroke-miterlimit="10" stroke-linecap="round" stroke-linejoin="round"/>
<path d="M143.295 506.294H132.592V521.266H143.295V506.294Z" fill="white" stroke="#181818" stroke-miterlimit="10" stroke-linecap="round" stroke-linejoin="round"/>
<path d="M165.532 506.294H154.83V521.266H165.532V506.294Z" fill="white" stroke="#181818" stroke-miterlimit="10" stroke-linecap="round" stroke-linejoin="round"/>
<path d="M309.421 196.291V175.973H297.054C296.459 172.527 295.627 169.2 294.438 166.111L305.14 159.932L294.914 142.347L284.211 148.526C281.952 145.912 279.573 143.535 276.957 141.278L283.141 130.584L265.541 120.365L259.357 131.059C256.147 129.871 252.817 129.039 249.487 128.445V115.969H229.153V128.326C225.704 128.92 222.374 129.752 219.282 130.94L213.099 120.246L195.499 130.465L201.683 141.159C199.067 143.416 196.688 145.793 194.429 148.407L183.726 142.228L173.5 159.814L184.202 165.992C183.013 169.2 182.18 172.527 181.586 175.854H168.862V196.173H181.229C181.824 199.618 182.656 202.945 183.845 206.035L173.143 212.213L183.37 229.799L194.072 223.62C196.332 226.234 198.71 228.611 201.326 230.868L195.142 241.562L212.742 251.781L218.926 241.087C222.137 242.275 225.466 243.107 228.796 243.701V256.058H249.131V243.701C252.579 243.107 255.909 242.275 259.001 241.087L265.184 251.781L282.784 241.562L276.6 230.868C279.217 228.611 281.595 226.234 283.854 223.62L294.557 229.799L304.784 212.213L294.081 206.035C295.27 202.827 296.103 199.5 296.697 196.173H309.421V196.291ZM239.142 224.095C218.212 224.095 201.207 207.104 201.207 186.192C201.207 165.279 218.212 148.288 239.142 148.288C260.071 148.288 277.076 165.279 277.076 186.192C277.076 207.104 260.071 224.095 239.142 224.095Z" fill="white" stroke="#181818" stroke-miterlimit="10" stroke-linecap="round" stroke-linejoin="round"/>
<path d="M216.666 383.434V363.116H204.299C203.704 359.67 202.872 356.343 201.683 353.254L212.385 347.075L202.158 329.489L191.456 335.668C189.196 333.054 186.818 330.678 184.202 328.42L190.386 317.726L172.786 307.508L166.602 318.201C163.392 317.013 160.062 316.182 156.732 315.587V302.992H136.397V315.35C132.949 315.944 129.619 316.776 126.527 317.964L120.344 307.27L102.744 317.489L108.928 328.182C106.312 330.44 103.933 332.816 101.674 335.43L90.9713 329.252L80.5066 346.956L91.2091 353.135C90.0199 356.343 89.1875 359.67 88.5929 362.997H76.1067V383.315H88.474C89.0686 386.761 89.901 390.088 91.0902 393.177L80.3877 399.356L90.6145 416.941L101.317 410.763C103.576 413.377 105.955 415.753 108.571 418.011L102.387 428.705L119.987 438.923L126.171 428.229C129.381 429.418 132.711 430.249 136.041 430.843V443.201H156.375V430.843C159.824 430.249 163.154 429.418 166.246 428.229L172.429 438.923L190.029 428.705L183.845 418.011C186.461 415.753 188.84 413.377 191.099 410.763L201.802 416.941L212.028 399.356L201.326 393.177C202.515 389.969 203.348 386.642 203.942 383.315H216.666V383.434ZM146.386 411.238C125.457 411.238 108.452 394.247 108.452 373.334C108.452 352.422 125.457 335.43 146.386 335.43C167.316 335.43 184.321 352.422 184.321 373.334C184.44 394.247 167.435 411.238 146.386 411.238Z" fill="white" stroke="#181818" stroke-miterlimit="10" stroke-linecap="round" stroke-linejoin="round"/>
<path d="M734.073 380.463V366.68H725.749C725.392 364.423 724.797 362.165 723.965 360.026L731.219 355.868L724.322 343.986L717.068 348.144C715.522 346.362 713.976 344.698 712.192 343.273L716.354 336.025L704.462 329.133L700.3 336.381C698.16 335.549 695.9 334.955 693.641 334.599V326.281H679.847V334.599C677.587 334.955 675.328 335.549 673.187 336.381L669.025 329.133L657.134 336.025L661.296 343.273C659.512 344.817 657.847 346.362 656.42 348.144L649.166 343.986L642.269 355.868L649.523 360.026C648.691 362.165 648.096 364.423 647.739 366.68H639.415V380.463H647.739C648.096 382.721 648.691 384.979 649.523 387.117L642.269 391.276L649.166 403.158L656.42 398.999C657.966 400.782 659.512 402.445 661.296 403.871L657.134 411.119L669.025 418.011L673.187 410.763C675.328 411.594 677.587 412.189 679.847 412.545V420.862H693.641V412.545C695.9 412.189 698.16 411.594 700.3 410.763L704.462 418.011L716.354 411.119L712.192 403.871C713.976 402.326 715.641 400.782 717.068 398.999L724.322 403.158L731.219 391.276L723.965 387.117C724.797 384.979 725.392 382.721 725.749 380.463H734.073V380.463ZM686.625 399.237C672.474 399.237 660.939 387.711 660.939 373.572C660.939 359.432 672.474 347.907 686.625 347.907C700.776 347.907 712.311 359.432 712.311 373.572C712.311 387.83 700.895 399.237 686.625 399.237Z" fill="white" stroke="#181818" stroke-miterlimit="10" stroke-linecap="round" stroke-linejoin="round"/>
<path d="M666.885 185.717V171.933H658.561C658.204 169.676 657.609 167.418 656.777 165.279L664.031 161.121L657.134 149.239L649.88 153.397C648.334 151.615 646.788 149.952 645.004 148.526L649.166 141.278L637.274 134.386L633.112 141.634C630.972 140.802 628.712 140.208 626.453 139.852V131.534H612.659V139.852C610.399 140.208 608.14 140.802 605.999 141.634L601.837 134.386L589.946 141.278L594.108 148.526C592.324 150.07 590.659 151.615 589.232 153.397L581.978 149.239L575.081 161.121L582.335 165.279C581.503 167.418 580.908 169.676 580.551 171.933H572.227V185.717H580.551C580.908 187.974 581.503 190.232 582.335 192.371L575.081 196.529L581.978 208.411L589.232 204.253C590.778 206.035 592.324 207.698 594.108 209.124L589.946 216.372L601.837 223.264L605.999 216.016C608.14 216.848 610.399 217.442 612.659 217.798V226.116H626.453V217.798C628.712 217.442 630.972 216.848 633.112 216.016L637.274 223.264L649.166 216.372L645.004 209.124C646.788 207.58 648.453 206.035 649.88 204.253L657.134 208.411L664.031 196.529L656.777 192.371C657.609 190.232 658.204 187.974 658.561 185.717H666.885ZM619.437 204.49C605.286 204.49 593.751 192.965 593.751 178.825C593.751 164.685 605.286 153.16 619.437 153.16C633.588 153.16 645.123 164.685 645.123 178.825C645.004 192.965 633.588 204.49 619.437 204.49Z" fill="white" stroke="#181818" stroke-miterlimit="10" stroke-linecap="round" stroke-linejoin="round"/>
<path d="M168.386 455.32V360.026H44.3557V299.071L150.786 47.0527H241.638V300.616H281V360.026H241.638V455.32H168.386ZM105.836 300.497H168.386V127.138L105.836 300.497Z" fill="#181818"/>
<path d="M241.639 455.914H168.505C168.148 455.914 167.91 455.677 167.91 455.32V360.62H44.3558C43.9991 360.62 43.7612 360.383 43.7612 360.026V299.071C43.7612 298.952 43.7612 298.952 43.7612 298.834L150.192 46.8152C150.311 46.5776 150.548 46.4587 150.786 46.4587H241.639C241.995 46.4587 242.233 46.6964 242.233 47.0528V300.022H281C281.357 300.022 281.595 300.259 281.595 300.616V360.026C281.595 360.383 281.357 360.62 281 360.62H242.233V455.32C242.233 455.677 241.876 455.914 241.639 455.914ZM168.981 454.726H240.925V360.026C240.925 359.67 241.163 359.432 241.52 359.432H280.287V301.091H241.52C241.163 301.091 240.925 300.854 240.925 300.497V47.5281H151.143L44.9504 299.19V359.432H168.505C168.862 359.432 169.099 359.67 169.099 360.026V454.726H168.981ZM168.386 301.091H105.836C105.598 301.091 105.479 300.972 105.36 300.854C105.241 300.735 105.241 300.497 105.241 300.259L167.791 126.9C167.91 126.663 168.148 126.425 168.505 126.544C168.743 126.544 168.981 126.781 168.981 127.138V300.497C168.981 300.854 168.743 301.091 168.386 301.091ZM106.668 299.903H167.791V130.584L106.668 299.903Z" fill="#181818"/>
<path d="M427.267 462.331C402.771 462.331 382.317 457.34 366.263 447.241C350.09 437.141 337.961 423.239 329.994 405.653C321.907 388.068 317.864 367.631 317.864 344.461V161.477C317.864 137.594 321.669 116.682 329.518 98.7398C337.247 80.7979 349.139 66.7771 365.312 56.6774C381.484 46.5776 402.176 41.5872 427.386 41.5872C452.24 41.5872 472.694 46.5776 488.628 56.6774C504.563 66.7771 516.455 80.7979 524.184 98.7398C531.914 116.682 535.838 137.594 535.838 161.477V344.461C535.838 367.631 531.795 388.068 523.709 405.653C515.622 423.239 503.493 437.141 487.439 447.241C471.148 457.34 451.051 462.331 427.267 462.331ZM427.267 393.771C436.305 393.771 442.964 390.92 446.889 385.216C450.932 379.513 453.667 372.74 454.975 364.779C456.283 356.937 456.997 349.57 456.997 342.797V162.903C456.997 155.536 456.402 147.813 455.213 139.733C454.024 131.653 451.407 124.643 447.364 118.821C443.321 112.998 436.543 110.028 427.148 110.028C417.754 110.028 410.976 112.998 406.695 118.821C402.533 124.762 399.798 131.653 398.608 139.733C397.419 147.813 396.825 155.536 396.825 162.903V342.916C396.825 349.689 397.538 356.937 398.846 364.898C400.154 372.74 403.008 379.632 407.408 385.335C411.927 390.92 418.468 393.771 427.267 393.771Z" fill="#181818"/>
<path d="M427.267 462.925C402.771 462.925 382.079 457.816 365.906 447.716C349.734 437.616 337.485 423.595 329.399 405.891C321.313 388.306 317.27 367.512 317.27 344.342V161.358C317.27 137.475 321.194 116.325 328.923 98.3834C336.653 80.3227 348.782 66.183 364.955 56.0833C381.128 45.9836 402.057 40.8743 427.267 40.8743C452.121 40.8743 472.932 45.9836 488.866 56.0833C504.92 66.183 516.931 80.4415 524.66 98.3834C532.39 116.325 536.314 137.594 536.314 161.358V344.342C536.314 367.512 532.271 388.187 524.185 405.891C516.098 423.595 503.85 437.616 487.677 447.716C471.386 457.816 451.17 462.925 427.267 462.925ZM427.267 42.0625C402.295 42.0625 381.485 47.1718 365.55 57.1527C349.615 67.1336 337.604 81.1544 329.994 98.9775C322.383 116.801 318.459 137.832 318.459 161.477V344.461C318.459 367.512 322.502 387.949 330.469 405.416C338.437 422.882 350.566 436.784 366.62 446.765C382.555 456.746 403.008 461.856 427.386 461.856C451.051 461.856 471.148 456.746 487.083 446.765C503.017 436.784 515.147 422.882 523.233 405.416C531.201 387.949 535.244 367.393 535.244 344.461V161.477C535.244 137.832 531.32 116.801 523.709 98.9775C516.098 81.1544 504.207 67.1336 488.391 57.1527C472.456 47.0529 451.883 42.0625 427.267 42.0625ZM427.267 394.365C418.349 394.365 411.57 391.395 407.171 385.573C402.771 379.751 399.798 372.859 398.49 364.898C397.182 357.056 396.468 349.57 396.468 342.916V162.903C396.468 155.536 397.063 147.694 398.252 139.614C399.441 131.534 402.176 124.405 406.457 118.464C410.738 112.404 417.754 109.434 427.386 109.434C437.019 109.434 443.916 112.523 448.078 118.464C452.121 124.405 454.856 131.534 456.045 139.614C457.234 147.694 457.829 155.536 457.829 162.903V342.916C457.829 349.57 457.116 357.056 455.807 364.898C454.499 372.859 451.645 379.751 447.602 385.573C443.202 391.395 436.424 394.365 427.267 394.365ZM427.267 110.622C418.111 110.622 411.333 113.474 407.289 119.177C403.127 124.999 400.511 131.891 399.322 139.852C398.133 147.813 397.538 155.536 397.538 162.903V342.916C397.538 349.57 398.252 356.937 399.56 364.779C400.868 372.502 403.722 379.275 408.003 384.979C412.284 390.563 418.705 393.296 427.149 393.296C435.948 393.296 442.489 390.444 446.294 384.979C450.218 379.394 452.953 372.621 454.262 364.779C455.57 356.937 456.283 349.57 456.283 342.916V162.903C456.283 155.536 455.689 147.813 454.499 139.852C453.31 131.891 450.694 124.999 446.77 119.177C442.965 113.474 436.424 110.622 427.267 110.622Z" fill="#181818"/>
<path d="M702.203 455.32V360.026H578.054V299.071L684.484 47.0527H775.337V300.616H814.698V360.026H775.337V455.32H702.203ZM639.653 300.497H702.203V127.138L639.653 300.497Z" fill="#181818"/>
<path d="M775.337 455.914H702.203C701.846 455.914 701.608 455.677 701.608 455.32V360.62H578.054C577.697 360.62 577.459 360.383 577.459 360.026V299.071C577.459 298.952 577.459 298.952 577.459 298.834L683.89 46.8152C684.009 46.5776 684.247 46.4587 684.484 46.4587H775.337C775.694 46.4587 775.931 46.6964 775.931 47.0528V300.022H814.698C815.055 300.022 815.293 300.259 815.293 300.616V360.026C815.293 360.383 815.055 360.62 814.698 360.62H775.931V455.32C775.931 455.677 775.694 455.914 775.337 455.914ZM702.798 454.726H774.742V360.026C774.742 359.67 774.98 359.432 775.337 359.432H814.104V301.091H775.337C774.98 301.091 774.742 300.854 774.742 300.497V47.5281H684.96L578.768 299.071V359.313H702.322C702.679 359.313 702.917 359.551 702.917 359.907V454.726H702.798ZM702.203 301.091H639.653C639.415 301.091 639.296 300.972 639.177 300.854C639.058 300.735 639.058 300.497 639.058 300.259L701.608 126.9C701.727 126.663 701.965 126.425 702.322 126.544C702.56 126.544 702.798 126.781 702.798 127.138V300.497C702.798 300.854 702.56 301.091 702.203 301.091ZM640.485 299.903H701.608V130.584L640.485 299.903Z" fill="#181818"/>
<path d="M337.486 546.693V485.144H359.723V489.66H343.313V512.711H356.75V516.988H343.313V542.416H359.842V546.693H337.486Z" fill="#181818"/>
<path d="M367.928 546.693V485.144H381.841C385.647 485.144 388.739 485.739 390.879 487.046C393.139 488.234 394.684 490.135 395.636 492.392C396.587 494.769 397.063 497.502 397.063 500.829C397.063 503.086 396.825 505.225 396.349 507.245C395.874 509.265 394.922 511.047 393.733 512.354C392.544 513.78 390.76 514.731 388.62 515.206L398.014 546.693H392.425L383.387 516.394H373.755V546.693H367.928ZM373.636 512.117H381.485C384.101 512.117 386.122 511.641 387.549 510.81C388.976 509.978 389.928 508.671 390.641 507.007C391.236 505.344 391.593 503.205 391.593 500.71C391.593 496.908 390.879 494.056 389.571 492.155C388.263 490.254 385.647 489.303 381.723 489.303H373.755V512.117H373.636Z" fill="#181818"/>
<path d="M406.814 546.693V485.144H420.727C424.533 485.144 427.624 485.739 429.765 487.046C432.024 488.234 433.57 490.135 434.522 492.392C435.473 494.769 435.949 497.502 435.949 500.829C435.949 503.086 435.711 505.225 435.235 507.245C434.759 509.265 433.808 511.047 432.619 512.354C431.43 513.78 429.646 514.731 427.505 515.206L436.9 546.693H431.311L422.273 516.394H412.641V546.693H406.814ZM412.641 512.117H420.489C423.106 512.117 425.127 511.641 426.554 510.81C427.981 509.978 428.932 508.671 429.646 507.007C430.241 505.344 430.597 503.205 430.597 500.71C430.597 496.908 429.884 494.056 428.576 492.155C427.268 490.254 424.651 489.303 420.727 489.303H412.641V512.117Z" fill="#181818"/>
<path d="M460.327 547.406C456.284 547.406 453.073 546.575 450.813 545.03C448.554 543.485 446.889 541.228 445.938 538.376C444.986 535.524 444.511 532.197 444.511 528.514V502.967C444.511 499.165 444.986 495.957 445.938 493.224C446.889 490.491 448.554 488.353 450.932 486.808C453.192 485.263 456.402 484.55 460.327 484.55C464.37 484.55 467.462 485.263 469.84 486.808C472.099 488.353 473.764 490.491 474.716 493.224C475.667 495.957 476.143 499.284 476.143 502.967V528.633C476.143 532.316 475.667 535.643 474.716 538.495C473.764 541.347 472.218 543.604 469.84 545.149C467.581 546.575 464.37 547.406 460.327 547.406ZM460.327 542.772C463.062 542.772 465.202 542.178 466.51 541.109C467.937 540.04 468.889 538.495 469.483 536.594C469.959 534.693 470.316 532.316 470.316 529.821V501.898C470.316 499.284 470.078 497.026 469.483 495.125C469.008 493.224 467.937 491.68 466.51 490.729C465.083 489.66 463.062 489.184 460.327 489.184C457.592 489.184 455.57 489.66 454.143 490.729C452.716 491.798 451.765 493.224 451.17 495.125C450.694 497.026 450.338 499.284 450.338 501.898V529.821C450.338 532.435 450.576 534.693 451.17 536.594C451.646 538.495 452.716 540.04 454.143 541.109C455.57 542.178 457.592 542.772 460.327 542.772Z" fill="#181818"/>
<path d="M485.656 546.693V485.144H499.569C503.374 485.144 506.466 485.739 508.607 487.046C510.866 488.234 512.412 490.135 513.363 492.392C514.315 494.769 514.79 497.502 514.79 500.829C514.79 503.086 514.553 505.225 514.077 507.245C513.601 509.265 512.65 511.047 511.461 512.354C510.272 513.78 508.488 514.731 506.347 515.206L515.742 546.693H510.153L501.115 516.394H491.483V546.693H485.656ZM491.483 512.117H499.331C501.947 512.117 503.969 511.641 505.396 510.81C506.823 509.978 507.774 508.671 508.488 507.007C509.082 505.344 509.439 503.205 509.439 500.71C509.439 496.908 508.726 494.056 507.418 492.155C506.109 490.254 503.493 489.303 499.569 489.303H491.602V512.117H491.483Z" fill="#181818"/>
<path d="M317.865 251.305L322.264 314.874L294.676 302.042L287.66 329.965C287.66 329.965 346.88 362.997 352.707 361.927C358.534 360.858 343.907 232.175 343.907 232.175L317.865 251.305Z" fill="#77AE90" stroke="#181818" stroke-miterlimit="10" stroke-linecap="round" stroke-linejoin="round"/>
<path d="M357.582 404.703C357.582 404.703 389.333 393.771 401.701 383.434C414.068 372.978 349.139 247.028 349.139 247.028C349.139 247.028 350.091 362.64 357.582 404.703Z" fill="#77AE90" stroke="#181818" stroke-miterlimit="10" stroke-linecap="round" stroke-linejoin="round"/>
<path d="M490.531 364.066L486.845 364.66C486.845 364.898 486.845 365.017 486.845 365.254C486.607 370.007 461.04 382.483 442.965 389.375C439.04 392.464 433.808 394.009 427.149 394.009C427.03 394.009 427.03 394.009 427.03 394.009C413.117 395.316 386.36 389.256 380.296 385.097L373.755 451.637C374.825 452.112 375.896 452.587 376.966 453.182C391.117 459.479 407.765 462.568 427.149 462.568C449.505 462.568 468.413 458.172 483.991 449.379C484.11 449.261 484.229 449.261 484.348 449.142C485.299 448.548 486.25 447.953 487.202 447.359C488.391 446.646 489.461 445.934 490.531 445.102C490.888 444.864 491.245 444.627 491.483 444.389C492.315 443.795 493.029 443.319 493.742 442.725C494.099 442.488 494.456 442.131 494.812 441.894C495.526 441.3 496.358 440.705 497.072 440.111C497.428 439.874 497.666 439.636 498.023 439.398C498.974 438.567 500.045 437.735 500.996 436.784C496.953 407.317 490.531 364.066 490.531 364.066Z" fill="#666666" stroke="#181818" stroke-miterlimit="10" stroke-linecap="round" stroke-linejoin="round"/>
<path d="M348.069 286.714C348.069 286.714 377.442 358.601 377.917 361.096C378.274 363.591 375.063 379.988 379.701 384.385C384.458 388.781 416.09 396.029 429.527 393.415C442.965 390.92 486.607 371.314 486.964 365.136C487.321 358.957 443.678 238.473 438.327 223.858C432.857 209.362 410.738 204.253 395.874 205.678C381.009 207.104 344.978 216.61 338.437 225.64C331.778 234.789 348.069 286.714 348.069 286.714Z" fill="white" stroke="#181818" stroke-miterlimit="10" stroke-linecap="round" stroke-linejoin="round"/>
<path d="M350.685 219.937C350.685 219.937 346.999 252.969 349.258 259.861C351.399 266.752 361.388 285.763 361.388 285.763C361.388 285.763 378.036 264.97 381.247 262.831C384.458 260.692 414.663 279.941 414.663 279.941C414.663 279.941 415.733 259.266 411.452 242.156C407.052 225.046 399.441 206.629 396.944 203.302C394.447 200.094 394.447 211.976 384.933 220.056C375.42 227.898 350.685 219.937 350.685 219.937Z" fill="white" stroke="#181818" stroke-miterlimit="10" stroke-linecap="round" stroke-linejoin="round"/>
<path d="M347.95 225.64C347.95 225.64 352.231 236.572 361.626 249.88C371.02 263.187 383.982 273.05 383.982 273.05C383.982 273.05 394.209 246.79 396.944 231.106C399.679 215.422 395.041 199.737 395.041 199.737C395.041 199.737 393.139 223.264 384.815 227.898C376.609 232.769 347.95 225.64 347.95 225.64Z" fill="white" stroke="#181818" stroke-miterlimit="10" stroke-linecap="round" stroke-linejoin="round"/>
<path d="M369.474 229.324C359.129 228.373 347.95 225.64 347.95 225.64C347.95 225.64 352.231 236.572 361.626 249.88C362.577 251.187 363.529 252.375 364.48 253.563L380.653 234.789L369.474 229.324Z" fill="#181818" stroke="#181818" stroke-miterlimit="10" stroke-linecap="round" stroke-linejoin="round"/>
<path d="M395.041 199.856C395.041 199.856 406.933 247.503 411.333 283.506C415.733 319.39 426.197 425.853 426.197 425.853C426.197 425.853 458.899 416.466 476.023 404.109C493.147 391.751 498.499 383.434 498.499 383.434C498.499 383.434 470.553 261.049 470.553 259.267C470.553 257.484 473.407 239.305 473.407 239.305C473.407 239.305 522.877 216.016 541.666 201.876C560.573 187.737 555.817 180.132 546.779 176.449C537.741 172.765 509.32 176.805 493.742 181.201C478.164 185.598 470.078 188.449 470.078 188.449C470.078 188.449 452.597 187.024 436.662 190.588C420.727 194.153 395.041 199.856 395.041 199.856Z" fill="#77AE90" stroke="#181818" stroke-miterlimit="10" stroke-linecap="round" stroke-linejoin="round"/>
<path d="M420.133 321.885C419.538 323.667 418.943 325.687 418.23 327.707Z" fill="white"/>
<path d="M420.133 321.885C419.538 323.667 418.943 325.687 418.23 327.707" stroke="#181818" stroke-miterlimit="10" stroke-linecap="round" stroke-linejoin="round"/>
<path d="M425.722 241.087L431.311 244.652C431.311 244.652 429.527 273.525 426.911 291.823C425.365 302.874 424.057 308.815 421.56 317.013" stroke="#181818" stroke-miterlimit="10" stroke-linecap="round" stroke-linejoin="round"/>
<path d="M415.852 206.629C419.538 213.402 424.77 223.264 424.77 224.69C424.77 226.829 419.3 237.047 419.3 237.047L422.749 239.186" stroke="#181818" stroke-miterlimit="10" stroke-linecap="round" stroke-linejoin="round"/>
<path d="M412.403 200.332C412.403 200.332 412.998 201.401 413.83 203.064Z" fill="white"/>
<path d="M412.403 200.332C412.403 200.332 412.998 201.401 413.83 203.064" stroke="#181818" stroke-miterlimit="10" stroke-linecap="round" stroke-linejoin="round"/>
<path d="M479.353 360.264C475.31 363.116 469.245 366.68 460.802 369.889C443.678 376.424 440.824 377.493 440.824 377.493L443.321 386.167C443.321 386.167 473.17 380.701 486.964 365.136" stroke="#181818" stroke-miterlimit="10" stroke-linecap="round" stroke-linejoin="round"/>
<path d="M485.418 355.392C485.418 355.392 484.585 356.224 482.921 357.531Z" fill="white"/>
<path d="M485.418 355.392C485.418 355.392 484.585 356.224 482.921 357.531" stroke="#181818" stroke-miterlimit="10" stroke-linecap="round" stroke-linejoin="round"/>
<path d="M479.948 219.937L473.407 239.186L488.747 216.253" stroke="#181818" stroke-miterlimit="10" stroke-linecap="round" stroke-linejoin="round"/>
<path d="M482.921 211.263L481.375 215.659" stroke="#181818" stroke-miterlimit="10" stroke-linecap="round" stroke-linejoin="round"/>
<path d="M350.685 219.937C350.685 219.937 354.372 286.001 358.296 318.32C362.339 350.64 368.88 430.487 368.88 430.487C368.88 430.487 356.156 429.418 347.831 419.199C339.507 408.98 335.464 401.376 335.464 401.376C335.464 401.376 335.464 332.341 335.464 329.49C335.464 326.638 329.637 293.606 324.167 277.208C318.697 260.93 310.729 242.038 315.486 233.958C320.243 225.997 335.107 213.996 340.577 212.57C345.929 211.263 350.329 212.689 350.685 219.937Z" fill="#77AE90" stroke="#181818" stroke-miterlimit="10" stroke-linecap="round" stroke-linejoin="round"/>
<path d="M348.664 302.874C350.685 309.29 352.707 314.993 354.372 318.677Z" fill="white"/>
<path d="M348.664 302.874C350.685 309.29 352.707 314.993 354.372 318.677" stroke="#181818" stroke-miterlimit="10" stroke-linecap="round" stroke-linejoin="round"/>
<path d="M336.178 232.532C335.583 237.285 335.226 240.849 335.702 241.325C337.129 242.751 342.956 247.86 342.956 247.86C342.956 247.86 335.702 256.89 336.772 261.643C337.486 264.732 342.242 282.793 347.118 298.359" stroke="#181818" stroke-miterlimit="10" stroke-linecap="round" stroke-linejoin="round"/>
<path d="M340.102 208.292C340.102 208.292 338.199 218.749 336.772 227.779Z" fill="white"/>
<path d="M340.102 208.292C340.102 208.292 338.199 218.749 336.772 227.779" stroke="#181818" stroke-miterlimit="10" stroke-linecap="round" stroke-linejoin="round"/>
<path d="M344.383 376.186L337.961 373.097" stroke="#181818" stroke-miterlimit="10" stroke-linecap="round" stroke-linejoin="round"/>
<path d="M337.961 363.353L355.799 370.601V381.414L347.594 377.612" stroke="#181818" stroke-miterlimit="10" stroke-linecap="round" stroke-linejoin="round"/>
<path d="M323.572 176.211L329.756 191.42C329.756 191.42 321.67 182.984 319.767 190.469C317.864 197.955 323.454 206.629 327.259 206.629C330.945 206.629 335.345 206.985 335.345 206.985C335.345 206.985 348.426 229.918 356.512 234.314C364.599 238.71 375.42 242.394 382.317 238.71C389.096 235.027 392.901 224.69 395.041 216.966C397.182 209.243 395.636 185.954 395.636 185.954L384.458 140.089C384.458 140.089 392.187 137.356 392.187 132.01C392.187 126.781 374.231 125.237 374.231 125.237C374.231 125.237 381.366 116.919 372.328 115.612C363.291 114.424 334.156 131.772 333.205 132.366C332.253 132.96 338.199 121.553 330.707 125.593C323.216 129.633 314.535 149.476 315.486 154.11C316.319 158.507 323.572 176.211 323.572 176.211Z" fill="white" stroke="#181818" stroke-miterlimit="10" stroke-linecap="round" stroke-linejoin="round"/>
<path d="M374.112 124.999C374.112 124.999 381.247 116.563 372.209 115.375C363.172 114.187 334.037 131.534 333.086 132.128C332.134 132.723 338.08 121.316 330.589 125.356C323.097 129.396 314.416 149.239 315.367 153.873C316.319 158.507 323.454 176.211 323.454 176.211L329.637 191.42C329.637 191.42 336.772 197.955 334.275 192.965C331.778 187.974 326.783 176.805 328.091 175.26C329.28 173.716 335.583 171.22 335.821 167.775C336.178 164.329 329.875 154.467 331.778 151.971C333.68 149.476 360.08 154.11 364.718 151.377C369.355 148.645 363.528 141.753 363.528 141.753L384.339 139.852C384.339 139.852 392.068 137.119 392.068 131.772C392.187 126.544 374.112 124.999 374.112 124.999Z" fill="#666666" stroke="#181818" stroke-miterlimit="10" stroke-linecap="round" stroke-linejoin="round"/>
<path d="M378.155 201.638C378.155 201.638 375.301 206.867 371.02 207.223Z" fill="white"/>
<path d="M378.155 201.638C378.155 201.638 375.301 206.867 371.02 207.223" stroke="#181818" stroke-miterlimit="10" stroke-linecap="round" stroke-linejoin="round"/>
<path d="M358.891 187.38C359.723 189.281 359.366 191.301 358.058 191.895C356.75 192.489 354.966 191.539 354.134 189.638C353.302 187.737 353.658 185.717 354.966 185.123C356.275 184.528 358.058 185.598 358.891 187.38Z" fill="#181818"/>
<path d="M381.62 186.621C383.047 186.394 383.944 184.581 383.624 182.572C383.304 180.563 381.887 179.119 380.46 179.346C379.033 179.573 378.136 181.386 378.456 183.395C378.777 185.404 380.193 186.848 381.62 186.621Z" fill="#181818"/>
<path d="M371.02 219.105C371.02 219.105 376.253 219.105 380.058 216.253Z" fill="white"/>
<path d="M371.02 219.105C371.02 219.105 376.253 219.105 380.058 216.253" stroke="#181818" stroke-miterlimit="10" stroke-linecap="round" stroke-linejoin="round"/>
<path d="M343.432 183.34C343.432 183.34 347.832 177.162 359.604 180.845" stroke="#181818" stroke-width="2" stroke-miterlimit="10" stroke-linecap="round" stroke-linejoin="round"/>
<path d="M374.707 177.518C374.707 177.518 376.847 170.389 385.29 169.795" stroke="#181818" stroke-width="2" stroke-miterlimit="10" stroke-linecap="round" stroke-linejoin="round"/>
<path d="M392.187 171.339C392.187 171.339 394.328 166.349 396.825 169.438C399.322 172.528 400.274 178.706 398.728 182.746C397.182 186.786 396.23 190.232 396.23 190.232L395.636 185.835L392.187 171.339Z" fill="white" stroke="#181818" stroke-miterlimit="10" stroke-linecap="round" stroke-linejoin="round"/>
<path d="M449.267 147.1C449.267 147.1 415.138 140.921 412.879 140.921C410.738 140.921 385.29 145.555 381.485 147.1C377.798 148.644 349.496 156.724 350.091 158.625C350.685 160.527 354.134 161.121 354.134 161.121C354.134 161.121 354.729 163.972 364.718 165.161C374.707 166.349 397.895 163.259 398.252 165.517C398.609 167.656 396.706 169.557 396.706 169.557L399.441 174.547C399.441 174.547 409.668 173.003 413.117 170.507C416.565 168.012 426.197 160.289 426.197 160.289L447.008 161.834L449.267 147.1Z" fill="white" stroke="#181818" stroke-miterlimit="10" stroke-linecap="round" stroke-linejoin="round"/>
<path d="M373.517 151.377C373.517 151.377 359.485 157.318 357.345 158.507C355.204 159.695 361.388 162.19 365.074 161.596C368.761 161.002 383.031 155.417 385.29 154.823C387.43 154.229 397.42 156.724 404.555 157.675C411.69 158.625 416.684 156.487 417.873 155.774" fill="white"/>
<path d="M373.517 151.377C373.517 151.377 359.485 157.318 357.345 158.507C355.204 159.695 361.388 162.19 365.074 161.596C368.761 161.002 383.031 155.417 385.29 154.823C387.43 154.229 397.42 156.724 404.555 157.675C411.69 158.625 416.684 156.487 417.873 155.774" stroke="#181818" stroke-miterlimit="10" stroke-linecap="round" stroke-linejoin="round"/>
<path d="M533.46 196.648C533.46 196.648 522.52 199.5 509.439 196.648C496.358 193.796 461.872 176.686 461.872 176.686L438.208 169.795L443.678 142.228C443.678 142.228 503.255 149.476 520.023 155.655C536.79 161.834 561.049 175.973 560.335 181.083C559.622 186.192 546.184 197.005 546.184 197.005" fill="#77AE90"/>
<path d="M533.46 196.648C533.46 196.648 522.52 199.5 509.439 196.648C496.358 193.796 461.872 176.686 461.872 176.686L438.208 169.795L443.678 142.228C443.678 142.228 503.255 149.476 520.023 155.655C536.79 161.834 561.049 175.973 560.335 181.083C559.622 186.192 546.184 197.005 546.184 197.005" stroke="#181818" stroke-miterlimit="10" stroke-linecap="round" stroke-linejoin="round"/>
<path d="M328.805 315.35C328.805 315.35 350.685 340.421 369.117 331.985C387.55 323.548 396.706 269.604 396.706 269.604" stroke="#181818" stroke-miterlimit="10" stroke-linecap="round" stroke-linejoin="round"/>
<path d="M300.027 296.457C300.027 296.457 317.389 318.083 340.34 316.063C363.291 314.043 371.139 287.427 370.901 274.238" stroke="#181818" stroke-miterlimit="10" stroke-linecap="round" stroke-linejoin="round"/>
<path d="M310.062 282.946L302.735 280.486L291.221 314.726L298.548 317.185L310.062 282.946Z" fill="#181818" stroke="#181818" stroke-miterlimit="10" stroke-linecap="round" stroke-linejoin="round"/>
<path d="M313.368 279.858L301.983 276.035L300.278 281.104L311.663 284.926L313.368 279.858Z" fill="#181818" stroke="#181818" stroke-miterlimit="10" stroke-linecap="round" stroke-linejoin="round"/>
<path d="M326.138 288.277L318.811 285.817L307.297 320.057L314.624 322.517L326.138 288.277Z" fill="#181818" stroke="#181818" stroke-miterlimit="10" stroke-linecap="round" stroke-linejoin="round"/>
<path d="M329.555 285.227L318.17 281.405L316.466 286.473L327.851 290.295L329.555 285.227Z" fill="#181818" stroke="#181818" stroke-miterlimit="10" stroke-linecap="round" stroke-linejoin="round"/>
<path d="M323.479 296.408L299.807 288.46L291.02 314.59L314.692 322.538L323.479 296.408Z" fill="#181818" stroke="#181818" stroke-miterlimit="10" stroke-linecap="round" stroke-linejoin="round"/>
<path d="M293.011 332.104L270.892 324.618L282.665 305.369L295.389 309.647L293.011 332.104Z" fill="#181818" stroke="#181818" stroke-miterlimit="10" stroke-linecap="round" stroke-linejoin="round"/>
<path d="M292.99 332.048L270.897 324.63L263.019 348.057L285.112 355.475L292.99 332.048Z" fill="#181818" stroke="#181818" stroke-miterlimit="10" stroke-linecap="round" stroke-linejoin="round"/>
<path d="M306.291 287.459L287.354 281.102L279.476 304.529L298.413 310.886L306.291 287.459Z" fill="#181818" stroke="#181818" stroke-miterlimit="10" stroke-linecap="round" stroke-linejoin="round"/>
<path d="M325.237 342.916L303.119 335.431L314.891 316.182L327.615 320.459L325.237 342.916Z" fill="#181818" stroke="#181818" stroke-miterlimit="10" stroke-linecap="round" stroke-linejoin="round"/>
<path d="M325.22 342.859L303.126 335.442L295.248 358.869L317.342 366.286L325.22 342.859Z" fill="#181818" stroke="#181818" stroke-miterlimit="10" stroke-linecap="round" stroke-linejoin="round"/>
<path d="M338.517 298.273L319.58 291.915L311.702 315.342L330.639 321.7L338.517 298.273Z" fill="#181818" stroke="#181818" stroke-miterlimit="10" stroke-linecap="round" stroke-linejoin="round"/>
<path d="M279.811 279.585C279.811 279.585 277.195 283.862 278.027 285.05C278.741 286.239 286.233 290.397 287.303 290.635C288.373 290.991 291.227 289.447 291.108 287.427C290.989 285.407 285.162 281.248 283.379 280.179C281.476 279.109 280.525 278.991 279.811 279.585Z" fill="white" stroke="#181818" stroke-miterlimit="10" stroke-linecap="round" stroke-linejoin="round"/>
<path d="M275.768 287.902C275.768 287.902 274.579 292.655 275.649 293.606C276.719 294.556 285.043 296.338 286.114 296.338C287.184 296.338 289.562 294.081 288.849 292.18C288.135 290.397 281.357 287.902 279.335 287.427C277.195 287.07 276.244 287.189 275.768 287.902Z" fill="white" stroke="#181818" stroke-miterlimit="10" stroke-linecap="round" stroke-linejoin="round"/>
<path d="M273.508 296.219C273.508 296.219 272.319 300.972 273.39 301.923C274.46 302.873 282.784 304.656 283.854 304.656C284.924 304.656 287.303 302.398 286.589 300.497C285.876 298.715 279.098 296.219 277.076 295.744C274.935 295.388 273.984 295.507 273.508 296.219Z" fill="white" stroke="#181818" stroke-miterlimit="10" stroke-linecap="round" stroke-linejoin="round"/>
<path d="M274.579 304.299C274.579 304.299 273.39 309.052 274.46 310.003C275.53 310.953 283.854 312.736 284.925 312.736C285.995 312.736 288.373 310.478 287.66 308.577C286.946 306.795 280.168 304.299 278.146 303.824C276.006 303.349 275.054 303.468 274.579 304.299Z" fill="white" stroke="#181818" stroke-miterlimit="10" stroke-linecap="round" stroke-linejoin="round"/>
</g>
<defs>
<clipPath id="clip0_1002_173">
<rect width="865" height="554.773" fill="white"/>
</clipPath>
</defs>
</svg>
