<svg width="742" height="499" viewBox="0 0 742 499" fill="none" xmlns="http://www.w3.org/2000/svg">
<path d="M613.967 408.483H599.207C597.484 408.481 595.832 407.796 594.613 406.577C593.394 405.359 592.709 403.707 592.707 401.983V278.969C592.709 277.246 593.394 275.594 594.613 274.375C595.832 273.157 597.484 272.471 599.207 272.469H613.967C615.69 272.471 617.342 273.157 618.561 274.375C619.779 275.594 620.465 277.246 620.467 278.969V401.983C620.465 403.707 619.779 405.359 618.561 406.577C617.342 407.796 615.69 408.481 613.967 408.483V408.483Z" fill="#2D6BA9"/>
<path d="M573.775 408.483H559.016C557.292 408.481 555.64 407.796 554.422 406.577C553.203 405.359 552.518 403.707 552.516 401.983V278.969C552.518 277.246 553.203 275.594 554.422 274.375C555.64 273.157 557.292 272.471 559.016 272.469H573.775C575.499 272.471 577.151 273.157 578.369 274.375C579.588 275.594 580.273 277.246 580.275 278.969V401.983C580.273 403.707 579.588 405.359 578.369 406.577C577.151 407.796 575.499 408.481 573.775 408.483V408.483Z" fill="#2D6BA9"/>
<path d="M580.018 379.234H551.018C549.825 379.233 548.681 378.758 547.837 377.914C546.993 377.071 546.519 375.927 546.518 374.734V273.734C546.519 272.541 546.993 271.397 547.837 270.553C548.681 269.71 549.825 269.235 551.018 269.234H580.018C581.211 269.235 582.354 269.71 583.198 270.553C584.042 271.397 584.516 272.541 584.518 273.734V374.734C584.516 375.927 584.042 377.071 583.198 377.914C582.354 378.758 581.211 379.233 580.018 379.234V379.234Z" fill="#122A42"/>
<path d="M621.018 379.234H592.018C590.825 379.233 589.681 378.758 588.837 377.914C587.993 377.071 587.519 375.927 587.518 374.734V273.734C587.519 272.541 587.993 271.397 588.837 270.553C589.681 269.71 590.825 269.235 592.018 269.234H621.018C622.211 269.235 623.354 269.71 624.198 270.553C625.042 271.397 625.516 272.541 625.518 273.734V374.734C625.516 375.927 625.042 377.071 624.198 377.914C623.354 378.758 622.211 379.233 621.018 379.234V379.234Z" fill="#122A42"/>
<path d="M571.54 204.224C571.128 204.508 570.7 204.77 570.26 205.009L468.643 260.195C467.893 260.602 467.07 260.858 466.221 260.947C465.372 261.037 464.514 260.958 463.696 260.716C462.877 260.473 462.115 260.072 461.451 259.535C460.788 258.998 460.237 258.335 459.829 257.585L452.785 244.615L453.225 244.376L452.785 244.615C451.965 243.099 451.779 241.321 452.268 239.668C452.757 238.016 453.882 236.625 455.395 235.801L557.012 180.615C560.132 178.921 563.784 178.488 567.215 179.404C570.645 180.32 573.594 182.515 575.456 185.54C577.317 188.564 577.948 192.186 577.22 195.662C576.491 199.137 574.459 202.201 571.54 204.224V204.224Z" fill="#2D6BA9"/>
<path d="M587.551 144.091C615.717 144.091 638.551 121.257 638.551 93.0906C638.551 64.9241 615.717 42.0906 587.551 42.0906C559.384 42.0906 536.551 64.9241 536.551 93.0906C536.551 121.257 559.384 144.091 587.551 144.091Z" fill="#2D6BA9"/>
<path d="M593.512 114.5C590.206 114.408 586.091 114.293 582.922 111.978C581.978 111.26 581.202 110.344 580.65 109.295C580.097 108.246 579.78 107.089 579.722 105.905C579.664 105.063 579.802 104.22 580.125 103.44C580.448 102.661 580.946 101.966 581.582 101.412C583.237 100.013 585.655 99.6846 588.26 100.45L585.561 80.7246L587.542 80.4531L590.716 103.643L589.061 102.884C587.143 102.004 584.509 101.556 582.873 102.939C582.471 103.3 582.158 103.75 581.958 104.252C581.758 104.754 581.677 105.296 581.72 105.835C581.769 106.716 582.007 107.577 582.417 108.358C582.828 109.139 583.403 109.823 584.102 110.362C586.568 112.164 589.848 112.396 593.567 112.5L593.512 114.5Z" fill="#122A42"/>
<path d="M575.762 82.4258H564.99V84.4258H575.762V82.4258Z" fill="#122A42"/>
<path d="M609.762 82.4258H598.99V84.4258H609.762V82.4258Z" fill="#122A42"/>
<path d="M591.118 41.9395C591.493 35.9109 593.159 30.0332 596.004 24.7045C598.848 19.3758 602.804 14.7206 607.604 11.054C612.564 7.38133 618.287 4.87373 624.349 3.71759C630.411 2.56144 636.656 2.78647 642.619 4.37594C648.544 5.91551 654.042 8.78002 658.699 12.7535C663.355 16.727 667.049 21.7058 669.502 27.3145C671.97 32.8816 673.202 38.9178 673.112 45.007C672.84 51.6287 671.195 58.1217 668.281 64.0741C665.274 70.6263 661.481 76.7734 658.187 83.1783C654.943 89.4943 652.144 96.0292 649.81 102.735C645.062 116.4 642.261 130.664 641.488 145.109C640.264 167.88 642.443 201.123 668.148 209.862C674.685 212.084 681.737 212.498 688.59 212.48C695.809 212.568 703.008 211.725 710.011 209.971C722.146 206.731 733.666 199.121 738.837 187.299C740.029 184.569 740.827 181.684 741.21 178.73C741.318 177.92 740.443 177.238 739.71 177.23C739.315 177.24 738.939 177.401 738.66 177.68C738.38 177.959 738.219 178.335 738.21 178.73C736.536 191.328 726.038 200.989 714.641 205.332C707.981 207.746 700.984 209.1 693.905 209.344C686.859 209.7 679.543 209.644 672.643 208.023C666.501 206.694 660.913 203.517 656.629 198.92C652.81 194.523 649.962 189.37 648.27 183.798C644.212 171.413 643.787 157.796 644.5 144.887C645.307 130.489 648.169 116.281 652.998 102.694C655.437 95.8334 658.38 89.1627 661.802 82.7358C665.144 76.4495 668.855 70.3409 671.672 63.7885C674.42 57.766 675.932 51.2528 676.116 44.6351C676.138 38.5235 674.922 32.4707 672.541 26.842C670.2 21.191 666.69 16.0991 662.241 11.9006C657.793 7.70212 652.507 4.49206 646.73 2.48117C640.853 0.435348 634.613 -0.359036 628.411 0.149015C622.208 0.657066 616.18 2.45633 610.714 5.4313C605.515 8.42026 600.959 12.4101 597.311 17.1703C593.663 21.9304 590.994 27.3665 589.459 33.1642C588.714 36.0358 588.264 38.9763 588.118 41.9395C588.019 43.8691 591.019 43.8637 591.118 41.9395V41.9395Z" fill="#122A42"/>
<path d="M601.091 42.9929C601.909 37.4287 604.697 32.3429 608.948 28.6601C613.466 24.8732 619.257 22.9509 625.143 23.2846C627.072 23.3811 627.067 20.3808 625.143 20.2846C618.746 19.9961 612.466 22.069 607.498 26.109C602.53 30.1489 599.22 35.8741 598.198 42.1954C597.91 44.0841 600.8 44.8983 601.091 42.9929H601.091Z" fill="#122A42"/>
<path d="M602.167 46.9424C601.583 46.9422 601.002 46.8484 600.447 46.6646L586.203 41.9615C585.517 41.735 584.883 41.3757 584.336 40.904C583.789 40.4323 583.34 39.8575 583.015 39.2124C582.691 38.5674 582.496 37.8646 582.443 37.1443C582.389 36.4241 582.479 35.7004 582.705 35.0146C582.932 34.3287 583.291 33.6942 583.763 33.1473C584.234 32.6003 584.809 32.1517 585.454 31.8268C586.099 31.502 586.802 31.3074 587.522 31.2542C588.242 31.201 588.966 31.2902 589.652 31.5166L603.896 36.2198C605.137 36.6298 606.192 37.4688 606.871 38.5863C607.551 39.7038 607.809 41.0268 607.601 42.3177C607.393 43.6087 606.732 44.7834 605.736 45.6309C604.74 46.4784 603.475 46.9434 602.167 46.9424V46.9424Z" fill="#122A42"/>
<path d="M604.427 163.734H601.971C601.997 163.568 602.012 163.401 602.018 163.234C602.018 159.092 595.75 155.734 588.018 155.734C580.286 155.734 574.018 159.092 574.018 163.234C574.023 163.401 574.039 163.568 574.064 163.734H571.608C552.504 163.734 537.018 181.473 537.018 203.356V285.734C537.018 286.795 537.439 287.812 538.189 288.562C538.939 289.312 539.957 289.734 541.018 289.734H635.018C636.078 289.734 637.096 289.312 637.846 288.562C638.596 287.812 639.018 286.795 639.018 285.734V203.356C639.018 181.473 623.531 163.734 604.427 163.734Z" fill="#122A42"/>
<path d="M493.455 254.092C493.059 254.092 492.665 254.04 492.283 253.937C491.711 253.786 491.176 253.522 490.706 253.162C490.237 252.802 489.844 252.353 489.55 251.84L473.55 224.127C473.255 223.616 473.063 223.051 472.986 222.465C472.909 221.879 472.948 221.284 473.101 220.713C473.254 220.142 473.517 219.607 473.877 219.138C474.237 218.669 474.685 218.276 475.197 217.98L544.479 177.98C549.188 175.262 554.784 174.525 560.035 175.932C565.287 177.34 569.764 180.775 572.483 185.484C575.201 190.192 575.938 195.788 574.531 201.04C573.124 206.291 569.688 210.769 564.979 213.487L495.697 253.487C495.016 253.883 494.242 254.092 493.455 254.092V254.092Z" fill="#122A42"/>
<path d="M633.149 313.134C632.592 314.258 631.723 315.197 630.646 315.839C629.569 316.481 628.33 316.799 627.076 316.754L612.327 316.212C610.605 316.147 608.979 315.401 607.806 314.139C606.633 312.876 606.009 311.2 606.071 309.478L610.318 193.921C610.385 192.1 610.81 190.309 611.569 188.652C612.328 186.995 613.406 185.503 614.741 184.263C616.077 183.022 617.643 182.057 619.352 181.421C621.06 180.786 622.877 180.494 624.698 180.561C626.52 180.628 628.31 181.053 629.968 181.812C631.625 182.57 633.116 183.648 634.357 184.984C635.598 186.319 636.563 187.886 637.198 189.594C637.833 191.303 638.126 193.119 638.059 194.941L633.811 310.497C633.779 311.413 633.553 312.312 633.149 313.134Z" fill="#2D6BA9"/>
<path d="M638.018 276.234H606.018C604.825 276.233 603.681 275.758 602.837 274.914C601.993 274.071 601.519 272.927 601.518 271.734V191.734C601.518 186.297 603.677 181.083 607.522 177.238C611.366 173.394 616.581 171.234 622.018 171.234C627.455 171.234 632.669 173.394 636.513 177.238C640.358 181.083 642.518 186.297 642.518 191.734V271.734C642.516 272.927 642.042 274.071 641.198 274.914C640.354 275.758 639.211 276.233 638.018 276.234Z" fill="#122A42"/>
<path d="M412.806 318H1.19436C0.877593 318 0.573803 317.874 0.349818 317.65C0.125833 317.426 0 317.122 0 316.805V1.19549C0 0.878425 0.125833 0.574347 0.349818 0.35015C0.573803 0.125952 0.877593 0 1.19436 0H207C207.317 0 207.62 0.125952 207.844 0.35015C208.068 0.574347 208.194 0.878425 208.194 1.19549C208.194 1.51255 208.068 1.81663 207.844 2.04083C207.62 2.26503 207.317 2.39098 207 2.39098H2.38871V315.609H411.611V159C411.611 158.683 411.737 158.379 411.961 158.155C412.185 157.93 412.489 157.805 412.806 157.805C413.122 157.805 413.426 157.93 413.65 158.155C413.874 158.379 414 158.683 414 159V316.805C414 317.122 413.874 317.426 413.65 317.65C413.426 317.874 413.122 318 412.806 318Z" fill="#FFA000"/>
<path d="M110.675 188.392H67.2568C65.7725 182.64 63.0202 177.785 59 173.826L112.716 93.0205H127.652V172.806H148.248V188.392H127.652V207.41H139.435V223.089H96.9443V207.41H110.675V188.392ZM110.675 172.806V121.966L76.8125 172.806H110.675Z" fill="#122A42"/>
<path d="M163.092 158.611C163.092 137.335 167.081 120.914 175.06 109.349C183.1 97.7829 194.047 92 207.901 92C222.25 92 233.29 97.9993 241.021 109.998C248.753 121.997 252.618 138.201 252.618 158.611C252.618 179.764 248.629 196.154 240.65 207.781C232.672 219.347 221.756 225.13 207.901 225.13C193.429 225.13 182.327 219.1 174.596 207.039C166.926 194.979 163.092 178.836 163.092 158.611ZM182.018 158.611C182.018 177.042 184.244 190.247 188.697 198.226C193.15 206.142 199.552 210.101 207.901 210.101C216.251 210.101 222.652 206.111 227.105 198.133C231.559 190.154 233.785 176.98 233.785 158.611C233.785 139.933 231.528 126.666 227.013 118.812C222.498 110.957 216.127 107.029 207.901 107.029C198.624 107.029 191.975 111.513 187.955 120.481C183.997 129.388 182.018 142.098 182.018 158.611Z" fill="#122A42"/>
<path d="M316.632 188.392H273.214C271.729 182.64 268.977 177.785 264.957 173.826L318.673 93.0205H333.609V172.806H354.205V188.392H333.609V207.41H345.392V223.089H302.901V207.41H316.632V188.392ZM316.632 172.806V121.966L282.77 172.806H316.632Z" fill="#122A42"/>
<path d="M79.9922 476.289C79.9922 472.344 81.2812 469.043 83.8594 466.387C86.4375 463.73 89.7969 462.402 93.9375 462.402C98.1172 462.402 101.522 463.73 104.152 466.387C106.783 469.043 108.098 472.37 108.098 476.367C108.098 480.443 106.757 483.809 104.074 486.465C101.405 489.108 98.0065 490.43 93.8789 490.43C91.2487 490.43 88.8268 489.805 86.6133 488.555C84.4128 487.292 82.7591 485.54 81.6523 483.301C80.5456 481.048 79.9922 478.711 79.9922 476.289ZM84.4648 476.309C84.4648 479.29 85.3372 481.79 87.082 483.809C88.8268 485.827 91.1185 486.836 93.957 486.836C96.7695 486.836 99.0807 485.807 100.891 483.75C102.701 481.68 103.605 479.212 103.605 476.348C103.605 473.457 102.681 471.016 100.832 469.023C98.9961 467.018 96.6849 466.016 93.8984 466.016C91.125 466.016 88.8594 466.999 87.1016 468.965C85.3438 470.931 84.4648 473.379 84.4648 476.309ZM111.594 480.547C111.594 477.63 112.557 475.241 114.484 473.379C116.411 471.504 118.762 470.566 121.535 470.566C124.257 470.566 126.594 471.491 128.547 473.34C130.5 475.176 131.477 477.578 131.477 480.547C131.477 483.516 130.5 485.924 128.547 487.773C126.607 489.622 124.27 490.547 121.535 490.547C118.723 490.547 116.359 489.609 114.445 487.734C112.544 485.859 111.594 483.464 111.594 480.547ZM115.52 480.547C115.52 482.409 116.099 483.939 117.258 485.137C118.43 486.322 119.855 486.914 121.535 486.914C123.241 486.914 124.667 486.315 125.812 485.117C126.971 483.906 127.551 482.383 127.551 480.547C127.551 478.698 126.965 477.174 125.793 475.977C124.621 474.779 123.202 474.18 121.535 474.18C119.79 474.18 118.352 474.792 117.219 476.016C116.086 477.24 115.52 478.75 115.52 480.547ZM136.73 495.176V474.395H133.547V471.094H140.441V474.062C142.29 471.888 144.53 470.801 147.16 470.801C149.816 470.801 152.01 471.712 153.742 473.535C155.487 475.358 156.359 477.728 156.359 480.645C156.359 483.704 155.415 486.12 153.527 487.891C151.639 489.661 149.491 490.547 147.082 490.547C144.582 490.547 142.368 489.583 140.441 487.656V495.176H144.113V498.477H133.273V495.176H136.73ZM140.383 480.82C140.383 481.862 140.598 482.858 141.027 483.809C141.457 484.759 142.141 485.56 143.078 486.211C144.016 486.849 145.116 487.168 146.379 487.168C148.15 487.168 149.608 486.576 150.754 485.391C151.913 484.206 152.492 482.578 152.492 480.508C152.492 478.49 151.887 476.914 150.676 475.781C149.478 474.648 148.111 474.082 146.574 474.082C144.934 474.082 143.488 474.701 142.238 475.938C141.001 477.161 140.383 478.789 140.383 480.82ZM159.641 490V483.516H162.961V484.141C163.078 485.026 163.553 485.755 164.387 486.328C165.233 486.901 166.229 487.188 167.375 487.188C168.573 487.188 169.53 486.979 170.246 486.562C170.962 486.146 171.32 485.566 171.32 484.824C171.32 484.108 171.021 483.581 170.422 483.242C169.836 482.904 168.664 482.591 166.906 482.305C164.302 481.862 162.44 481.152 161.32 480.176C160.214 479.186 159.66 477.91 159.66 476.348C159.66 474.772 160.266 473.457 161.477 472.402C162.688 471.335 164.283 470.801 166.262 470.801C168.046 470.801 169.582 471.165 170.871 471.895V471.094H174.172V477.363H170.871V476.211C169.868 474.661 168.41 473.887 166.496 473.887C165.52 473.887 164.712 474.102 164.074 474.531C163.449 474.948 163.137 475.508 163.137 476.211C163.137 476.927 163.423 477.422 163.996 477.695C164.582 477.956 165.832 478.236 167.746 478.535C169.582 478.822 170.969 479.16 171.906 479.551C172.844 479.928 173.618 480.566 174.23 481.465C174.855 482.35 175.168 483.385 175.168 484.57C175.168 486.328 174.491 487.728 173.137 488.77C171.796 489.798 170.051 490.312 167.902 490.312C165.884 490.312 164.237 489.857 162.961 488.945V490H159.641ZM183.137 482.637H181.145L180.168 471.094V462.832H184.113V471.094L183.137 482.637ZM179.758 490V485.195H184.562V490H179.758ZM205.832 486.602V466.23H200.227V473.164H196.867V462.832H218.879V473.164H215.52V466.23H209.934V486.602H213.469V490H202.355V486.602H205.832ZM224.191 486.699V466.133H220.773V462.832H227.902V473.262C230.129 471.465 232.245 470.566 234.25 470.566C235.5 470.566 236.529 470.827 237.336 471.348C238.143 471.868 238.69 472.559 238.977 473.418C239.276 474.264 239.426 475.508 239.426 477.148V486.699H242.648V490H235.715V478.438C235.715 477.005 235.669 476.048 235.578 475.566C235.487 475.085 235.233 474.688 234.816 474.375C234.413 474.062 233.931 473.906 233.371 473.906C231.939 473.906 230.116 474.72 227.902 476.348V486.699H231.184V490H220.773V486.699H224.191ZM263.605 486.699V490H257.121V487.695C255.324 489.44 253.319 490.312 251.105 490.312C249.387 490.312 247.889 489.753 246.613 488.633C245.35 487.513 244.719 486.081 244.719 484.336C244.719 482.578 245.389 481.12 246.73 479.961C248.085 478.802 249.712 478.223 251.613 478.223C253.384 478.223 255.096 478.757 256.75 479.824V477.949C256.75 476.986 256.659 476.243 256.477 475.723C256.294 475.202 255.865 474.733 255.188 474.316C254.523 473.9 253.651 473.691 252.57 473.691C250.708 473.691 249.361 474.434 248.527 475.918L244.973 474.98C246.548 472.038 249.27 470.566 253.137 470.566C254.556 470.566 255.78 470.762 256.809 471.152C257.85 471.53 258.625 472.025 259.133 472.637C259.641 473.236 259.979 473.887 260.148 474.59C260.331 475.293 260.422 476.413 260.422 477.949V486.699H263.605ZM256.75 482.969C255.148 481.719 253.527 481.094 251.887 481.094C250.858 481.094 249.999 481.393 249.309 481.992C248.618 482.591 248.273 483.366 248.273 484.316C248.273 485.202 248.573 485.944 249.172 486.543C249.784 487.142 250.611 487.441 251.652 487.441C253.449 487.441 255.148 486.686 256.75 485.176V482.969ZM265.344 474.395V471.094H267.805V468.184L271.516 464.785V471.094H275.012V474.395H271.516V483.574C271.516 485.046 271.594 485.957 271.75 486.309C271.919 486.647 272.329 486.816 272.98 486.816C273.671 486.816 274.348 486.686 275.012 486.426V489.805C274.061 490.143 273.111 490.312 272.16 490.312C271.027 490.312 270.109 490.065 269.406 489.57C268.703 489.062 268.26 488.431 268.078 487.676C267.896 486.921 267.805 485.618 267.805 483.77V474.395H265.344ZM289.934 495.176V474.395H286.75V471.094H293.645V474.062C295.493 471.888 297.733 470.801 300.363 470.801C303.02 470.801 305.214 471.712 306.945 473.535C308.69 475.358 309.562 477.728 309.562 480.645C309.562 483.704 308.618 486.12 306.73 487.891C304.842 489.661 302.694 490.547 300.285 490.547C297.785 490.547 295.572 489.583 293.645 487.656V495.176H297.316V498.477H286.477V495.176H289.934ZM293.586 480.82C293.586 481.862 293.801 482.858 294.23 483.809C294.66 484.759 295.344 485.56 296.281 486.211C297.219 486.849 298.319 487.168 299.582 487.168C301.353 487.168 302.811 486.576 303.957 485.391C305.116 484.206 305.695 482.578 305.695 480.508C305.695 478.49 305.09 476.914 303.879 475.781C302.681 474.648 301.314 474.082 299.777 474.082C298.137 474.082 296.691 474.701 295.441 475.938C294.204 477.161 293.586 478.789 293.586 480.82ZM331.926 486.699V490H325.441V487.695C323.645 489.44 321.639 490.312 319.426 490.312C317.707 490.312 316.21 489.753 314.934 488.633C313.671 487.513 313.039 486.081 313.039 484.336C313.039 482.578 313.71 481.12 315.051 479.961C316.405 478.802 318.033 478.223 319.934 478.223C321.704 478.223 323.417 478.757 325.07 479.824V477.949C325.07 476.986 324.979 476.243 324.797 475.723C324.615 475.202 324.185 474.733 323.508 474.316C322.844 473.9 321.971 473.691 320.891 473.691C319.029 473.691 317.681 474.434 316.848 475.918L313.293 474.98C314.868 472.038 317.59 470.566 321.457 470.566C322.876 470.566 324.1 470.762 325.129 471.152C326.171 471.53 326.945 472.025 327.453 472.637C327.961 473.236 328.299 473.887 328.469 474.59C328.651 475.293 328.742 476.413 328.742 477.949V486.699H331.926ZM325.07 482.969C323.469 481.719 321.848 481.094 320.207 481.094C319.178 481.094 318.319 481.393 317.629 481.992C316.939 482.591 316.594 483.366 316.594 484.316C316.594 485.202 316.893 485.944 317.492 486.543C318.104 487.142 318.931 487.441 319.973 487.441C321.77 487.441 323.469 486.686 325.07 485.176V482.969ZM357.004 471.094V474.395H353.605V488.477C353.605 490.378 353.508 491.784 353.312 492.695C353.117 493.62 352.642 494.557 351.887 495.508C351.145 496.471 350.025 497.279 348.527 497.93C347.03 498.581 345.357 498.906 343.508 498.906C340.721 498.906 338.234 498.066 336.047 496.387L338.469 493.691C340.109 494.967 341.893 495.605 343.82 495.605C344.888 495.605 345.878 495.397 346.789 494.98C347.701 494.577 348.378 494.082 348.82 493.496C349.276 492.91 349.569 492.35 349.699 491.816C349.829 491.296 349.895 490.41 349.895 489.16V487.441C349.309 488.184 348.391 488.887 347.141 489.551C345.891 490.215 344.523 490.547 343.039 490.547C340.331 490.547 338.124 489.609 336.418 487.734C334.712 485.859 333.859 483.555 333.859 480.82C333.859 477.826 334.797 475.41 336.672 473.574C338.56 471.725 340.741 470.801 343.215 470.801C345.715 470.801 347.941 471.797 349.895 473.789V471.094H357.004ZM337.805 480.742C337.805 482.656 338.358 484.219 339.465 485.43C340.585 486.641 342.01 487.246 343.742 487.246C345.435 487.246 346.893 486.641 348.117 485.43C349.341 484.206 349.953 482.637 349.953 480.723C349.953 478.783 349.341 477.227 348.117 476.055C346.893 474.87 345.474 474.277 343.859 474.277C342.245 474.277 340.832 474.863 339.621 476.035C338.41 477.194 337.805 478.763 337.805 480.742ZM378.078 481.484H362.18C362.414 483.229 363.104 484.642 364.25 485.723C365.396 486.803 366.861 487.344 368.645 487.344C371.236 487.344 373.286 486.302 374.797 484.219L378.078 485.664C377.01 487.318 375.624 488.548 373.918 489.355C372.212 490.15 370.428 490.547 368.566 490.547C365.676 490.547 363.202 489.648 361.145 487.852C359.1 486.042 358.078 483.607 358.078 480.547C358.078 477.643 359.074 475.254 361.066 473.379C363.072 471.504 365.37 470.566 367.961 470.566C370.5 470.566 372.798 471.484 374.855 473.32C376.926 475.143 378 477.865 378.078 481.484ZM374.25 478.789C373.99 477.461 373.299 476.263 372.18 475.195C371.06 474.115 369.686 473.574 368.059 473.574C366.574 473.574 365.305 474.062 364.25 475.039C363.195 476.003 362.551 477.253 362.316 478.789H374.25ZM408.898 471.094V478.242H405.578C405.409 476.875 404.849 475.827 403.898 475.098C402.961 474.368 401.867 474.004 400.617 474.004C398.951 474.004 397.596 474.596 396.555 475.781C395.513 476.953 394.992 478.496 394.992 480.41C394.992 482.194 395.487 483.77 396.477 485.137C397.466 486.491 398.898 487.168 400.773 487.168C403.378 487.168 405.266 485.931 406.438 483.457L409.504 484.902C407.811 488.665 404.849 490.547 400.617 490.547C397.622 490.547 395.266 489.525 393.547 487.48C391.828 485.436 390.969 483.079 390.969 480.41C390.969 477.559 391.906 475.208 393.781 473.359C395.656 471.497 397.818 470.566 400.266 470.566C402.362 470.566 404.133 471.185 405.578 472.422V471.094H408.898ZM431.145 486.699V490H424.66V487.695C422.863 489.44 420.858 490.312 418.645 490.312C416.926 490.312 415.428 489.753 414.152 488.633C412.889 487.513 412.258 486.081 412.258 484.336C412.258 482.578 412.928 481.12 414.27 479.961C415.624 478.802 417.251 478.223 419.152 478.223C420.923 478.223 422.635 478.757 424.289 479.824V477.949C424.289 476.986 424.198 476.243 424.016 475.723C423.833 475.202 423.404 474.733 422.727 474.316C422.062 473.9 421.19 473.691 420.109 473.691C418.247 473.691 416.9 474.434 416.066 475.918L412.512 474.98C414.087 472.038 416.809 470.566 420.676 470.566C422.095 470.566 423.319 470.762 424.348 471.152C425.389 471.53 426.164 472.025 426.672 472.637C427.18 473.236 427.518 473.887 427.688 474.59C427.87 475.293 427.961 476.413 427.961 477.949V486.699H431.145ZM424.289 482.969C422.688 481.719 421.066 481.094 419.426 481.094C418.397 481.094 417.538 481.393 416.848 481.992C416.158 482.591 415.812 483.366 415.812 484.316C415.812 485.202 416.112 485.944 416.711 486.543C417.323 487.142 418.15 487.441 419.191 487.441C420.988 487.441 422.688 486.686 424.289 485.176V482.969ZM439.777 471.094V473.379C442.16 471.66 444.335 470.801 446.301 470.801C447.525 470.801 448.534 471.094 449.328 471.68C450.135 472.253 450.663 472.962 450.91 473.809C451.158 474.642 451.281 475.866 451.281 477.48V486.699H454.465V490H447.57V477.637C447.57 476.204 447.355 475.273 446.926 474.844C446.496 474.401 445.969 474.18 445.344 474.18C443.703 474.18 441.848 474.98 439.777 476.582V486.699H443.039V490H432.746V486.699H436.066V474.395H432.746V471.094H439.777ZM458.039 467.637V462.832H462.844V466.992C462.844 468.424 462.733 469.531 462.512 470.312C462.29 471.094 461.815 471.732 461.086 472.227C460.37 472.721 459.354 472.995 458.039 473.047V470.996C459.602 470.762 460.383 469.798 460.383 468.105C460.383 468.001 460.376 467.845 460.363 467.637H458.039ZM465.891 474.395V471.094H468.352V468.184L472.062 464.785V471.094H475.559V474.395H472.062V483.574C472.062 485.046 472.141 485.957 472.297 486.309C472.466 486.647 472.876 486.816 473.527 486.816C474.217 486.816 474.895 486.686 475.559 486.426V489.805C474.608 490.143 473.658 490.312 472.707 490.312C471.574 490.312 470.656 490.065 469.953 489.57C469.25 489.062 468.807 488.431 468.625 487.676C468.443 486.921 468.352 485.618 468.352 483.77V474.395H465.891ZM487.805 490V486.699H491.164V466.133H487.805V462.832H494.797V473.77C496.659 471.634 498.944 470.566 501.652 470.566C504.257 470.566 506.438 471.465 508.195 473.262C509.966 475.046 510.852 477.402 510.852 480.332C510.852 483.145 509.986 485.514 508.254 487.441C506.535 489.355 504.328 490.312 501.633 490.312C500.122 490.312 498.742 489.987 497.492 489.336C496.242 488.685 495.344 487.962 494.797 487.168V490H487.805ZM494.914 480.586C494.914 482.552 495.513 484.115 496.711 485.273C497.922 486.419 499.315 486.992 500.891 486.992C502.544 486.992 503.97 486.38 505.168 485.156C506.366 483.932 506.965 482.292 506.965 480.234C506.965 478.242 506.366 476.699 505.168 475.605C503.983 474.499 502.59 473.945 500.988 473.945C499.413 473.945 498.007 474.518 496.77 475.664C495.533 476.797 494.914 478.438 494.914 480.586ZM534.055 481.484H518.156C518.391 483.229 519.081 484.642 520.227 485.723C521.372 486.803 522.837 487.344 524.621 487.344C527.212 487.344 529.263 486.302 530.773 484.219L534.055 485.664C532.987 487.318 531.6 488.548 529.895 489.355C528.189 490.15 526.405 490.547 524.543 490.547C521.652 490.547 519.178 489.648 517.121 487.852C515.077 486.042 514.055 483.607 514.055 480.547C514.055 477.643 515.051 475.254 517.043 473.379C519.048 471.504 521.346 470.566 523.938 470.566C526.477 470.566 528.775 471.484 530.832 473.32C532.902 475.143 533.977 477.865 534.055 481.484ZM530.227 478.789C529.966 477.461 529.276 476.263 528.156 475.195C527.036 474.115 525.663 473.574 524.035 473.574C522.551 473.574 521.281 474.062 520.227 475.039C519.172 476.003 518.527 477.253 518.293 478.789H530.227ZM549.387 486.699V474.395H546.633V471.113H549.387V468.379C549.387 466.074 549.875 464.486 550.852 463.613C551.828 462.728 552.98 462.285 554.309 462.285C557.173 462.285 558.833 463.737 559.289 466.641L555.988 467.148C555.858 465.938 555.383 465.332 554.562 465.332C554.003 465.332 553.618 465.527 553.41 465.918C553.202 466.296 553.098 467.116 553.098 468.379V471.113H556.34V474.395H553.098V486.699H556.691V490H546.633V486.699H549.387ZM559.562 480.547C559.562 477.63 560.526 475.241 562.453 473.379C564.38 471.504 566.73 470.566 569.504 470.566C572.225 470.566 574.562 471.491 576.516 473.34C578.469 475.176 579.445 477.578 579.445 480.547C579.445 483.516 578.469 485.924 576.516 487.773C574.576 489.622 572.238 490.547 569.504 490.547C566.691 490.547 564.328 489.609 562.414 487.734C560.513 485.859 559.562 483.464 559.562 480.547ZM563.488 480.547C563.488 482.409 564.068 483.939 565.227 485.137C566.398 486.322 567.824 486.914 569.504 486.914C571.21 486.914 572.635 486.315 573.781 485.117C574.94 483.906 575.52 482.383 575.52 480.547C575.52 478.698 574.934 477.174 573.762 475.977C572.59 474.779 571.171 474.18 569.504 474.18C567.759 474.18 566.32 474.792 565.188 476.016C564.055 477.24 563.488 478.75 563.488 480.547ZM603.098 486.699V490H596.125V487.832C593.951 489.486 591.867 490.312 589.875 490.312C588.612 490.312 587.564 490.039 586.73 489.492C585.91 488.932 585.363 488.216 585.09 487.344C584.816 486.458 584.68 485.039 584.68 483.086V474.395H582.004V471.094H588.391V482.617C588.391 484.01 588.43 484.948 588.508 485.43C588.586 485.911 588.814 486.309 589.191 486.621C589.569 486.934 590.044 487.09 590.617 487.09C592.336 487.09 594.172 486.27 596.125 484.629V474.395H592.785V471.094H599.836V486.699H603.098ZM611.613 471.094V473.379C613.996 471.66 616.171 470.801 618.137 470.801C619.361 470.801 620.37 471.094 621.164 471.68C621.971 472.253 622.499 472.962 622.746 473.809C622.993 474.642 623.117 475.866 623.117 477.48V486.699H626.301V490H619.406V477.637C619.406 476.204 619.191 475.273 618.762 474.844C618.332 474.401 617.805 474.18 617.18 474.18C615.539 474.18 613.684 474.98 611.613 476.582V486.699H614.875V490H604.582V486.699H607.902V474.395H604.582V471.094H611.613ZM651.34 486.699V490H644.23V487.227C642.382 489.284 640.129 490.312 637.473 490.312C635.012 490.312 632.85 489.473 630.988 487.793C629.126 486.113 628.195 483.724 628.195 480.625C628.195 477.513 629.152 475.059 631.066 473.262C632.98 471.465 635.142 470.566 637.551 470.566C640.103 470.566 642.329 471.582 644.23 473.613V466.133H640.598V462.832H647.941V486.699H651.34ZM632.16 480.527C632.16 482.611 632.746 484.212 633.918 485.332C635.103 486.452 636.516 487.012 638.156 487.012C639.745 487.012 641.151 486.426 642.375 485.254C643.612 484.069 644.23 482.435 644.23 480.352C644.23 478.255 643.599 476.673 642.336 475.605C641.086 474.538 639.68 474.004 638.117 474.004C636.438 474.004 635.025 474.635 633.879 475.898C632.733 477.148 632.16 478.691 632.16 480.527ZM654.875 490V485.195H659.68V490H654.875Z" fill="#122A42"/>
</svg>
