<svg xmlns="http://www.w3.org/2000/svg" width="100" height="100" viewBox="0 0 100 100">
  <g id="custom_project_icon" data-name="custom project icon" transform="translate(-450 -450)">
    <rect id="Rectangle_226" data-name="Rectangle 226" width="104.438" height="26.051" transform="translate(456.908 524.342) rotate(-45)" fill="#2d6ba9"/>
    <rect id="Rectangle_227" data-name="Rectangle 227" width="95.832" height="8.374" transform="translate(463.487 530.921) rotate(-45)" fill="#fffdf1"/>
    <path id="Polygon_1" data-name="Polygon 1" d="M450.658,549.671l4.276-19.408L470.066,545.4Z" fill="#2d6ba9"/>
    <rect id="Rectangle_228" data-name="Rectangle 228" width="26.051" height="34.425" transform="translate(450 468.421) rotate(-45)" fill="#2d6ba9"/>
    <rect id="Rectangle_234" data-name="Rectangle 234" width="26.051" height="34.425" transform="translate(507.237 525.658) rotate(-45)" fill="#2d6ba9"/>
    <rect id="Rectangle_229" data-name="Rectangle 229" width="17.678" height="4.652" transform="translate(453.947 472.368) rotate(-45)" fill="#ffa000"/>
    <rect id="Rectangle_237" data-name="Rectangle 237" width="17.678" height="4.652" transform="translate(511.184 529.605) rotate(-45)" fill="#ffa000"/>
    <rect id="Rectangle_232" data-name="Rectangle 232" width="17.678" height="4.652" transform="translate(467.105 485.526) rotate(-45)" fill="#ffa000"/>
    <rect id="Rectangle_235" data-name="Rectangle 235" width="17.678" height="4.652" transform="translate(524.342 542.763) rotate(-45)" fill="#ffa000"/>
    <rect id="Rectangle_233" data-name="Rectangle 233" width="8.374" height="4.652" transform="translate(460.526 478.947) rotate(-45)" fill="#ffa000"/>
    <rect id="Rectangle_236" data-name="Rectangle 236" width="8.374" height="4.652" transform="translate(517.763 536.184) rotate(-45)" fill="#ffa000"/>
  </g>
</svg>
