<svg xmlns="http://www.w3.org/2000/svg" width="108.207" height="100" viewBox="0 0 108.207 100">
  <g id="experience_icom" data-name="experience icom" transform="translate(-627.337 -446.376)">
    <path id="Path_170" data-name="Path 170" d="M627.337,478.719H735.544l-11.26,67.657H639Z" fill="#2d6ba9"/>
    <path id="Path_171" data-name="Path 171" d="M635.823,468.313v10.4h-8.486Z" fill="#2d6ba9"/>
    <g id="Rectangle_238" data-name="Rectangle 238">
      <path id="Path_176" data-name="Path 176" d="M657.113,446.376h50a7.844,7.844,0,0,1,7.843,7.843v14.706H649.27V454.219A7.843,7.843,0,0,1,657.113,446.376Z" fill="#ffa000"/>
      <path id="Path_177" data-name="Path 177" d="M711.034,468.925H653.191A3.926,3.926,0,0,1,649.269,465V454.219a7.853,7.853,0,0,1,7.844-7.843h50a7.853,7.853,0,0,1,7.843,7.843V465A3.926,3.926,0,0,1,711.034,468.925ZM657.113,450.3a3.926,3.926,0,0,0-3.922,3.921V465h57.843V454.219a3.925,3.925,0,0,0-3.921-3.921Z" fill="#fffdf1"/>
    </g>
    <g id="Rectangle_239" data-name="Rectangle 239">
      <path id="Path_178" data-name="Path 178" d="M643.387,456.18h76.471a7.844,7.844,0,0,1,7.843,7.843v14.706H635.544V464.023A7.844,7.844,0,0,1,643.387,456.18Z" fill="#ffa000"/>
      <path id="Path_179" data-name="Path 179" d="M723.779,478.729H639.466a3.926,3.926,0,0,1-3.922-3.922V464.023a7.851,7.851,0,0,1,7.843-7.843h76.471a7.852,7.852,0,0,1,7.843,7.843v10.784A3.926,3.926,0,0,1,723.779,478.729ZM643.387,460.1a3.925,3.925,0,0,0-3.921,3.921v10.784h84.313V464.023a3.925,3.925,0,0,0-3.921-3.921Z" fill="#fffdf1"/>
    </g>
    <path id="Path_180" data-name="Path 180" d="M699.636,507.574H663.121a3.432,3.432,0,0,1-3.431-3.431V491.971h6.863v8.74h29.652v-8.74h6.862v12.172A3.432,3.432,0,0,1,699.636,507.574Z" fill="#fffdf1"/>
    <path id="Path_172" data-name="Path 172" d="M727.058,468.313v10.4h8.486Z" fill="#2d6ba9"/>
  </g>
</svg>
