<svg xmlns="http://www.w3.org/2000/svg" width="121.113" height="100" viewBox="0 0 121.113 100">
  <g id="family_owned_icon" data-name="family owned icon" transform="translate(-588.069 -590.256)">
    <g id="badge">
      <path id="Union_1" data-name="Union 1" d="M646.3,689.715l-30.5-15.924c-11.415-5.958-18.9-15.225-20.543-25.419L588.1,603.831c-.228-1.42.976-2.753,2.85-3.155l39.942-8.556a84.949,84.949,0,0,1,18-1.863h0a84.81,84.81,0,0,1,17.473,1.863l39.941,8.555c1.873.4,3.074,1.735,2.851,3.154L706.7,619.107l-1.239,7.1-1.116,7.553-1.884,11.718-1.352,7.3c-1.214,3.836-1.4,3.688-3.845,7.349a42.376,42.376,0,0,1-15.812,13.666l-30.5,15.923a5.023,5.023,0,0,1-2.058.537h0c-.087,0-.176.007-.264.007A5.059,5.059,0,0,1,646.3,689.715Z" fill="#2d6ba9"/>
    </g>
    <g id="badge-2">
      <path id="Path_185" data-name="Path 185" d="M648.576,683.278a5.884,5.884,0,0,1-2.6-.612l-.019-.009L619.881,669.24C609.7,664,603.006,655.795,601.529,646.735L595.4,609.184c-.333-2.009,1.18-3.843,3.6-4.354l34.152-7.211a75.1,75.1,0,0,1,30.944,0l34.156,7.212c2.412.509,3.926,2.34,3.6,4.353l-2.1,12.878-1.063,6-.949,6.327-1.614,9.9-1.209,6.365a14.739,14.739,0,0,1-2.59,5.292c-.251.361-.541.778-.884,1.282a37.7,37.7,0,0,1-14.092,12.02l-26.212,13.477a9.691,9.691,0,0,1-2.077.534l-.436.022Zm-1.265-3.272a2.9,2.9,0,0,0,1.275.3h.024l.105,0a6.774,6.774,0,0,0,1.292-.333l26-13.379A34.72,34.72,0,0,0,689,655.528c.334-.49.629-.916.885-1.283a11.8,11.8,0,0,0,2.172-4.417l1.139-6.057,1.606-9.841.952-6.348,1.066-6.02,2.1-12.857c.051-.317-.46-.79-1.276-.963l-34.153-7.212a72.209,72.209,0,0,0-29.722,0l-34.148,7.211c-.817.173-1.33.645-1.277.961l6.126,37.555c1.324,8.118,7.439,15.531,16.778,20.337Z" fill="#ffa000"/>
    </g>
    <g id="Family_owned" data-name="Family owned" style="isolation: isolate">
      <g id="Group_651" data-name="Group 651" style="isolation: isolate">
        <path id="Path_186" data-name="Path 186" d="M626.393,618.569v2h-5.3v3.374h4.249v1.928h-4.249v5.3h-2.517v-12.6Z" fill="#fffdf1"/>
        <path id="Path_187" data-name="Path 187" d="M635.765,628.637h-5.053l-.892,2.535h-2.66l4.641-12.461h2.874l4.623,12.461h-2.659Zm-.679-1.911-1.857-5.319-1.857,5.319Z" fill="#fffdf1"/>
        <path id="Path_188" data-name="Path 188" d="M654.24,618.711v12.461h-2.5v-8.694l-3.2,8.694h-2.179l-3.2-8.659v8.659h-2.517V618.711h3.053l3.784,9.372,3.713-9.372Z" fill="#fffdf1"/>
        <path id="Path_189" data-name="Path 189" d="M659.042,618.569v12.6h-2.517v-12.6Z" fill="#fffdf1"/>
        <path id="Path_190" data-name="Path 190" d="M663.844,629.243h4.23v1.929h-6.747v-12.6h2.517Z" fill="#fffdf1"/>
        <path id="Path_191" data-name="Path 191" d="M679.731,618.569l-4.267,8.193v4.41H672.93v-4.41l-4.285-8.193h2.892l2.678,5.515,2.678-5.515Z" fill="#fffdf1"/>
      </g>
      <g id="Group_652" data-name="Group 652" style="isolation: isolate">
        <path id="Path_192" data-name="Path 192" d="M625.116,641.03a5.947,5.947,0,0,1,2.267,2.293,7.109,7.109,0,0,1,0,6.667,5.927,5.927,0,0,1-2.267,2.3,6.663,6.663,0,0,1-6.408,0,5.936,5.936,0,0,1-2.268-2.3,7.109,7.109,0,0,1,0-6.667,5.957,5.957,0,0,1,2.268-2.293,6.655,6.655,0,0,1,6.408,0Zm-5.15,2a3.417,3.417,0,0,0-1.312,1.437,5.3,5.3,0,0,0,0,4.373,3.417,3.417,0,0,0,1.312,1.437,4.042,4.042,0,0,0,3.891,0,3.412,3.412,0,0,0,1.313-1.437,5.29,5.29,0,0,0,0-4.373,3.412,3.412,0,0,0-1.313-1.437,4.035,4.035,0,0,0-3.891,0Z" fill="#fffdf1"/>
        <path id="Path_193" data-name="Path 193" d="M646.636,640.387l-3.089,12.6h-3.106l-2.356-9.139-2.374,9.139h-3.089l-3.088-12.6h2.731l1.928,9.764,2.5-9.764h2.767l2.517,9.764,1.929-9.764Z" fill="#fffdf1"/>
        <path id="Path_194" data-name="Path 194" d="M659.024,652.989h-2.518l-5.64-8.568v8.568h-2.517v-12.6h2.517l5.64,8.639v-8.639h2.518Z" fill="#fffdf1"/>
        <path id="Path_195" data-name="Path 195" d="M663.826,642.386v3.266h4.463v1.928h-4.463v3.392h5v2.017h-7.516v-12.6h7.516v2Z" fill="#fffdf1"/>
        <path id="Path_196" data-name="Path 196" d="M680.98,649.973A5.457,5.457,0,0,1,678.7,652.2a7.43,7.43,0,0,1-3.543.794H670.68v-12.6h4.481a7.572,7.572,0,0,1,3.543.776,5.363,5.363,0,0,1,2.276,2.2,7.35,7.35,0,0,1,0,6.614Zm-2.882-.3a4.615,4.615,0,0,0,0-6.016,4.374,4.374,0,0,0-3.152-1.071H673.2v8.159h1.749A4.37,4.37,0,0,0,678.1,649.669Z" fill="#fffdf1"/>
      </g>
    </g>
  </g>
</svg>
