<svg xmlns="http://www.w3.org/2000/svg" width="107.843" height="100" viewBox="0 0 107.843 100">
  <g id="phone_estimate_icon" data-name="phone estimate icon" transform="translate(-351.834 -590.257)">
    <rect id="Rectangle_244" data-name="Rectangle 244" width="52.941" height="100" rx="10.784" transform="translate(351.834 590.257)" fill="#2d6ba9"/>
    <rect id="Rectangle_245" data-name="Rectangle 245" width="47.059" height="74.51" rx="1.961" transform="translate(354.775 602.021)" fill="#fffdf1"/>
    <circle id="Ellipse_18" data-name="Ellipse 18" cx="4.412" cy="4.412" r="4.412" transform="translate(374.383 679.472)" fill="#245687"/>
    <g id="calc">
      <rect id="Rectangle_240" data-name="Rectangle 240" width="78.431" height="78.431" transform="translate(381.246 606.923)" fill="#ffa000"/>
      <rect id="Rectangle_243" data-name="Rectangle 243" width="39.216" height="39.216" transform="translate(420.461 646.139)" fill="#f5f3e7"/>
      <g id="_" data-name=" " style="isolation: isolate">
        <g id="Group_647" data-name="Group 647" style="isolation: isolate">
          <path id="Path_181" data-name="Path 181" d="M409.871,628.731h-6.106v6.212h-5.823v-6.212h-6.106V623.19h6.106v-6.247h5.823v6.247h6.106Z" fill="#fffdf1"/>
        </g>
      </g>
      <g id="_2" data-name=" 2" style="isolation: isolate">
        <g id="Group_648" data-name="Group 648" style="isolation: isolate">
          <path id="Path_182" data-name="Path 182" d="M405.327,673.535l-4.317-4.317-4.393,4.392-4.118-4.118,4.393-4.392-4.317-4.318,3.918-3.918,4.317,4.318,4.418-4.417,4.118,4.116-4.418,4.418,4.318,4.318Z" fill="#fffdf1"/>
        </g>
      </g>
      <g id="_-" data-name=" -" style="isolation: isolate">
        <g id="Group_649" data-name="Group 649" style="isolation: isolate">
          <path id="Path_183" data-name="Path 183" d="M448.224,623.4v5.012H432.659V623.4Z" fill="#fffdf1"/>
        </g>
      </g>
      <g id="_3" data-name=" 3" style="isolation: isolate">
        <g id="Group_650" data-name="Group 650" style="isolation: isolate">
          <path id="Path_184" data-name="Path 184" d="M449.97,658.9v5.507h-19.8V658.9Zm0,9v5.471h-19.8V667.9Z" fill="#2d6ba9"/>
        </g>
      </g>
      <rect id="Rectangle_241" data-name="Rectangle 241" width="1.961" height="78.431" transform="translate(419.481 606.923)" fill="#c67100"/>
      <rect id="Rectangle_242" data-name="Rectangle 242" width="78.431" height="1.961" transform="translate(381.246 645.159)" fill="#c67100"/>
    </g>
    <path id="Rectangle_246" data-name="Rectangle 246" d="M378.3,596.139h5.882a.98.98,0,0,1,.98.98h0a.98.98,0,0,1-.98.981H378.3a.981.981,0,0,1-.981-.981h0A.981.981,0,0,1,378.3,596.139Z" fill="#245687"/>
    <path id="Rectangle_247" data-name="Rectangle 247" d="M375.363,596.139h0a.981.981,0,0,1,.981.98h0a.981.981,0,0,1-.981.981h0a.98.98,0,0,1-.98-.981h0A.98.98,0,0,1,375.363,596.139Z" fill="#245687"/>
  </g>
</svg>
